<svg xmlns="http://www.w3.org/2000/svg" width="900" height="900" viewBox="0 0 900 900" version="1.1"><path d="M 447.824 130.773 C 445.821 132.990, 441.554 138.555, 438.342 143.139 C 430.677 154.077, 407.731 177.121, 397 184.657 C 384.875 193.171, 377.714 196.884, 358.913 204.403 C 342.170 211.100, 333.565 213.840, 320.597 216.605 C 308.947 219.090, 279.315 224.042, 267 225.564 C 260.675 226.345, 254.874 227.223, 254.109 227.515 C 252.983 227.944, 252.849 229.962, 253.409 238.090 C 253.790 243.615, 254.562 249.342, 255.125 250.818 C 255.702 252.329, 256.766 276.195, 257.563 305.500 C 258.340 334.100, 259.418 364.700, 259.957 373.500 C 260.496 382.300, 260.965 391.300, 260.999 393.500 C 261.047 396.618, 261.278 397.128, 262.046 395.812 C 262.947 394.266, 263.226 394.308, 265.355 396.312 C 267.775 398.590, 271 406.736, 271 410.571 C 271 412.456, 272.674 414, 274.717 414 C 275.424 414, 274.133 391.104, 272.831 380.547 C 272.285 376.121, 271.480 349.550, 271.042 321.500 C 270.394 280.007, 269.950 269.382, 268.658 264.500 C 267.772 261.148, 267.056 254.386, 267.036 249.178 L 267 239.856 261.547 240.537 C 256.200 241.205, 256.079 241.165, 255.399 238.455 C 254.037 233.027, 255.715 232.154, 271.500 230.080 C 283.591 228.491, 317.637 222.431, 325 220.557 C 350.326 214.113, 382.607 199.560, 399.569 186.940 C 412.934 176.997, 424.347 165.341, 437.359 148.348 C 444.923 138.469, 448.926 134.056, 450.616 133.733 C 452.746 133.326, 454.409 135.086, 464.453 148.385 C 476.431 164.243, 480.669 168.714, 495.655 181.295 C 523.262 204.471, 565.947 221.675, 609 226.978 C 614.225 227.622, 620.103 228.560, 622.062 229.062 C 624.021 229.565, 630.019 230.432, 635.391 230.989 C 640.763 231.546, 646.247 232.275, 647.579 232.609 C 649.574 233.110, 650 232.841, 650 231.084 C 650 228.340, 647.355 227.353, 636.267 225.962 C 631.445 225.357, 622.775 224.007, 617 222.962 C 611.225 221.917, 599.975 219.876, 592 218.426 C 565.678 213.640, 528.765 200.319, 513.603 190.133 C 502.367 182.585, 485.144 168.862, 479.357 162.846 C 475.125 158.447, 465.178 145.636, 453.483 129.522 L 451.465 126.743 447.824 130.773 M 454 144.542 C 454 145.414, 461.196 155.399, 466.583 162 C 469.500 165.575, 477.425 173.977, 484.193 180.670 C 496.606 192.945, 507.883 200.881, 525.500 209.739 C 550.466 222.292, 580.605 230.300, 618.693 234.501 C 626.417 235.353, 636.043 236.680, 640.085 237.450 C 647.852 238.930, 649 238.792, 649 236.382 C 649 235.557, 648.572 235.147, 648.049 235.470 C 647.526 235.793, 642.463 235.356, 636.799 234.498 C 631.134 233.640, 621.100 232.253, 614.500 231.417 C 588.219 228.085, 565.719 222.398, 539.985 212.583 C 524.637 206.729, 519.720 204.065, 498.940 190.342 C 490.928 185.052, 472.125 165.523, 462.387 152.378 C 457.937 146.372, 454 142.693, 454 144.542 M 439.423 152.250 C 431.220 164.974, 406.958 188.240, 389.632 199.997 C 380.029 206.514, 360.470 216.465, 353.571 218.343 C 350.782 219.102, 344.900 220.485, 340.500 221.415 C 336.100 222.345, 329.575 223.748, 326 224.532 C 322.425 225.315, 316.429 226.430, 312.675 227.009 C 308.922 227.589, 302.397 228.724, 298.175 229.532 C 293.954 230.341, 286.675 231.460, 282 232.019 C 270.233 233.427, 267.876 233.990, 268.631 235.212 C 270.843 238.792, 336.743 226.653, 356.918 218.949 C 369.055 214.315, 391.077 202.791, 400 196.405 C 405.225 192.665, 414.827 184.182, 421.338 177.553 C 433.571 165.097, 447 148.781, 447 146.373 C 447 143.032, 443.731 145.567, 439.423 152.250 M 375.319 242.884 C 369.558 247.057, 367.996 251.074, 368.022 261.651 C 368.048 272.175, 369.109 274.933, 378.733 289.499 C 386.729 301.602, 390.854 307, 392.105 307 C 392.621 307, 393.539 305.911, 394.146 304.579 C 395.088 302.511, 394.587 300.729, 390.695 292.329 C 388.191 286.923, 384.975 278.619, 383.549 273.875 C 381.129 265.829, 381 264.401, 381.630 252.625 C 382.399 238.238, 382.186 237.909, 375.319 242.884 M 635.681 243.628 C 635.096 247.317, 633.476 276.531, 632.611 299 C 632.388 304.775, 631.739 316.025, 631.169 324 C 630.599 331.975, 629.848 348.228, 629.501 360.118 C 628.944 379.191, 629.053 381.807, 630.435 382.337 C 631.320 382.676, 632 384.109, 632 385.635 C 632 391.317, 633.061 386.896, 633.949 377.518 C 634.954 366.886, 636.057 364.369, 638.064 368.120 C 639.267 370.367, 639.343 370.381, 640.087 368.478 C 640.562 367.261, 640.935 369.769, 641.057 375 L 641.254 383.500 642.014 377.500 C 642.432 374.200, 643.018 356.200, 643.316 337.500 C 643.614 318.800, 644.356 296.075, 644.965 287 C 647.575 248.143, 647.844 242.460, 647.116 241.723 C 646.693 241.296, 644.085 240.679, 641.321 240.352 L 636.295 239.756 635.681 243.628 M 450.035 249.934 C 448.369 253.048, 448.825 254.963, 451.527 256.194 C 455.307 257.917, 456.506 256.148, 454.619 251.632 C 452.921 247.567, 451.570 247.067, 450.035 249.934 M 421.063 250.424 C 419.542 252.257, 421.068 258.210, 425.113 266.225 C 429.525 274.964, 430.478 274.143, 431.572 260.662 L 432.260 252.186 429.180 250.593 C 425.366 248.621, 422.607 248.563, 421.063 250.424 M 356.197 255.109 C 354.006 257.351, 352.971 259.578, 352.488 263.090 C 351.302 271.712, 352.500 274.869, 362.416 289.248 C 367.517 296.645, 373.432 305.518, 375.560 308.966 C 377.688 312.414, 380.570 315.952, 381.965 316.828 C 383.359 317.704, 387.087 320.377, 390.250 322.769 C 393.413 325.160, 396 326.741, 396 326.283 C 396 324.748, 386.830 310.544, 383.551 307 C 379.192 302.288, 377.373 299.533, 368.287 283.893 L 360.508 270.500 360.691 261.250 C 360.791 256.163, 360.505 252, 360.055 252 C 359.605 252, 357.869 253.399, 356.197 255.109 M 439.138 255.914 C 432.844 259.804, 464.061 273.571, 471.496 270.184 C 474.349 268.884, 475.743 266.343, 474.362 264.962 C 473.864 264.464, 470.107 263.582, 466.012 263.002 C 461.917 262.421, 457.628 261.331, 456.482 260.580 C 454.405 259.219, 447.762 256.805, 442.992 255.676 C 441.612 255.350, 439.878 255.457, 439.138 255.914 M 407.156 263.529 C 406.061 264.921, 404.866 267.835, 404.499 270.006 C 403.719 274.624, 400.057 280.500, 397.960 280.500 C 396.882 280.500, 396.421 278.979, 396.198 274.687 C 395.947 269.856, 395.611 268.928, 394.206 269.199 C 393.276 269.378, 391.920 270.766, 391.193 272.284 C 390.071 274.623, 390.119 275.896, 391.503 280.657 C 392.482 284.025, 394.152 287.117, 395.676 288.386 C 403.809 295.152, 406.367 297.771, 408.650 301.666 C 410.047 304.050, 411.340 306, 411.522 306 C 411.705 306, 411.621 300.262, 411.336 293.250 C 410.887 282.227, 411.092 279.662, 412.846 274.315 C 416.250 263.938, 412.470 256.773, 407.156 263.529 M 439.621 271.250 C 439.970 275.238, 440.535 278.788, 440.878 279.139 C 441.220 279.491, 444.086 280.516, 447.247 281.416 C 452.421 282.891, 453.288 282.902, 455.934 281.534 C 460.368 279.241, 460.429 278.273, 456.285 276.010 C 454.203 274.873, 449.822 271.706, 446.550 268.971 C 443.277 266.237, 440.236 264, 439.793 264 C 439.349 264, 439.272 267.262, 439.621 271.250 M 472.799 275.361 C 461.113 282.020, 455.068 286.859, 451.802 292.168 L 448.828 297 441.414 297 C 435.490 297, 434 297.302, 434 298.500 C 434 301.634, 437.797 304, 442.826 304 C 448.669 304, 451.082 306.198, 452.981 313.250 C 453.684 315.863, 454.764 317.990, 455.380 317.978 C 455.996 317.966, 458.421 317.084, 460.768 316.019 C 464.323 314.405, 466.115 314.212, 471.501 314.860 C 475.057 315.288, 478.504 315.307, 479.160 314.901 C 479.878 314.457, 475.711 311.854, 468.676 308.352 C 462.254 305.156, 457 302.194, 457 301.770 C 457 300.635, 461.822 300.834, 464.121 302.065 C 468.213 304.254, 468.246 302.223, 464.192 297.824 C 461.886 295.323, 460 292.790, 460 292.195 C 460 291.601, 460.893 289.600, 461.985 287.749 C 464.365 283.715, 469.660 280.994, 476.500 280.288 C 481.499 279.772, 481.537 279.790, 483.562 283.635 C 484.863 286.106, 486.301 287.500, 487.549 287.500 C 489.212 287.500, 489.492 286.814, 489.443 282.848 C 489.380 277.664, 485.292 271, 482.175 271 C 481.227 271, 477.008 272.962, 472.799 275.361 M 557.451 275.337 C 557.129 276.623, 557.008 282.474, 557.182 288.339 C 557.357 294.205, 557.217 299.003, 556.871 299.002 C 556.526 299.001, 553.464 296.364, 550.067 293.141 C 544.990 288.325, 543.991 286.857, 544.455 284.891 C 544.766 283.576, 544.600 281.854, 544.086 281.064 C 542.611 278.796, 540.251 281.417, 538.520 287.243 C 537.045 292.211, 537.202 294, 539.114 294 C 540.593 294, 551.137 301.386, 553.886 304.348 C 555.602 306.196, 556.273 308.081, 556.273 311.051 C 556.273 316.532, 553.480 319.135, 544.500 322.024 C 532.616 325.847, 530.231 327.416, 528.956 332.251 C 528.339 334.588, 526.751 338.462, 525.427 340.860 L 523.018 345.219 526.759 344.536 C 531.833 343.608, 534.331 341.833, 537.940 336.587 C 540.481 332.893, 541.911 331.877, 546.403 330.571 C 549.376 329.707, 552.062 329, 552.373 329 C 553.094 329, 552.298 331.346, 549.658 337 C 547.011 342.667, 546.021 355, 548.213 355 C 552.486 355, 557.799 344.701, 557.848 336.319 C 557.870 332.605, 558.659 328.215, 559.825 325.319 C 560.891 322.669, 562.155 318.704, 562.632 316.509 C 563.372 313.110, 564.598 311.691, 570.915 306.930 C 579.032 300.811, 580.427 298.489, 579.453 292.722 C 578.540 287.318, 576.144 288.204, 573.433 294.948 C 571.408 299.986, 567.174 305, 564.944 305 C 563.423 305, 563.860 293.578, 565.535 289.569 C 567.305 285.333, 566.760 280.779, 563.926 276.118 C 561.634 272.350, 558.302 271.948, 557.451 275.337 M 567 273.533 C 567 274.952, 572.150 284, 572.958 284 C 575.865 284, 575.294 278.766, 572 275.230 C 570.136 273.229, 567 272.165, 567 273.533 M 346.376 278.639 C 345.624 281.635, 347.596 299.472, 349.343 305.476 C 350.363 308.982, 351.359 309.927, 357.773 313.476 C 361.773 315.689, 368.854 320.650, 373.509 324.500 C 378.164 328.350, 384.816 333.075, 388.290 335 C 391.765 336.925, 395.882 339.512, 397.439 340.750 C 400.516 343.196, 405 343.773, 405 341.723 C 405 338.710, 401.258 335.668, 392.537 331.593 C 384.117 327.659, 382.958 326.776, 380.422 322.371 C 378.880 319.692, 373.683 313.675, 368.874 309 C 360.021 300.394, 358.467 297.918, 351.140 280.750 C 348.861 275.410, 347.354 274.742, 346.376 278.639 M 427.500 281.130 C 416.101 290.253, 414.772 292.004, 419.250 291.996 C 423.842 291.989, 429.226 287.100, 434.389 278.250 C 435.841 275.760, 432.425 277.189, 427.500 281.130 M 438.190 283.319 C 436.700 285.191, 434 290.792, 434 292.012 C 434 292.768, 435.515 292.900, 438.750 292.425 C 446.162 291.337, 448.185 290.313, 447.819 287.839 C 447.414 285.100, 439.667 281.464, 438.190 283.319 M 464.133 288.918 C 461.946 290.270, 463.984 292.433, 473.633 299 C 485.620 307.159, 485.742 307.226, 486.467 306.053 C 487.764 303.954, 474.040 291.487, 467.837 289.128 C 466.460 288.605, 464.793 288.510, 464.133 288.918 M 501.478 296.750 C 501.142 298.813, 500.158 302.177, 499.292 304.227 C 497.989 307.310, 497.942 308.226, 499.021 309.525 C 502.412 313.611, 506.959 308.849, 506.985 301.184 C 507.013 293.158, 502.640 289.637, 501.478 296.750 M 400.024 303.677 C 400.037 304.680, 400.468 307.075, 400.982 309 C 401.495 310.925, 402.807 316.013, 403.896 320.306 C 406.132 329.124, 418.010 350.318, 422.769 353.982 C 436.934 364.889, 442.494 367.952, 449.304 368.605 C 452.162 368.878, 456.159 369.592, 458.187 370.190 C 461.365 371.128, 462.857 370.914, 468.994 368.639 C 472.910 367.188, 476.989 366, 478.057 366 C 479.638 366, 480 365.296, 480 362.223 C 480 357.071, 477.706 354.202, 471.333 351.384 L 465.941 348.999 459.749 351.606 C 455.049 353.584, 452.413 354.102, 448.812 353.756 C 442.440 353.144, 441.010 351.755, 440.955 346.128 C 440.887 339.211, 439.240 336.668, 431.040 330.820 C 426.589 327.646, 419.446 320.862, 413.330 314 C 403.146 302.576, 399.977 300.117, 400.024 303.677 M 427.357 303.512 C 426.786 305.001, 427.658 312.946, 428.687 315.628 C 428.977 316.383, 429.616 317, 430.107 317 C 431.106 317, 431.339 306.048, 430.393 303.582 C 429.625 301.579, 428.112 301.545, 427.357 303.512 M 584.430 304.421 C 583.416 308.463, 584.282 310.500, 587.014 310.500 C 590.147 310.500, 590.958 306.716, 588.425 303.918 C 586.127 301.378, 585.164 301.499, 584.430 304.421 M 439 310.035 C 439 312.806, 446.485 320, 449.368 320 C 451.384 320, 449.428 315.716, 445.997 312.616 C 442.095 309.091, 439 307.949, 439 310.035 M 349.028 315 C 349.036 316.375, 350.144 320.650, 351.492 324.500 C 354.591 333.359, 357.902 336.348, 372.500 343.467 C 383.644 348.901, 403.835 355, 410.682 355 C 413.739 355, 413.968 354.808, 413.020 353.038 C 412.348 351.781, 409.369 350.301, 404.736 348.921 C 397.139 346.659, 378.994 337.974, 370.500 332.535 C 367.750 330.774, 361.791 325.546, 357.257 320.917 C 350.060 313.569, 349.015 312.817, 349.028 315 M 436.583 317.643 C 436.237 318.547, 436.855 320.910, 437.959 322.893 C 439.062 324.877, 441.760 329.953, 443.955 334.174 C 448.254 342.441, 449.731 344.034, 451.096 341.878 C 453.275 338.438, 452.058 333.977, 447.639 329.207 C 445.240 326.618, 442.085 322.587, 440.626 320.250 C 437.643 315.468, 437.463 315.352, 436.583 317.643 M 454.092 323.402 C 450.868 326.834, 451.663 329.978, 456.430 332.645 C 461.386 335.420, 466.890 336.511, 468.380 335.016 C 469.207 334.186, 468.280 332.796, 464.829 329.696 C 462.260 327.388, 459.657 324.488, 459.044 323.250 C 457.634 320.404, 456.887 320.427, 454.092 323.402 M 518.744 323.750 C 515.806 326.821, 511.370 335.901, 510.374 340.881 L 509.723 344.137 513.572 343.819 C 517.361 343.505, 517.456 343.396, 519.634 336.851 C 522.274 328.921, 523.606 321, 522.301 321 C 521.791 321, 520.190 322.238, 518.744 323.750 M 496.388 332.430 C 495.757 334.075, 498.496 340.337, 500.616 342.097 C 502.627 343.766, 503.455 342.526, 503.455 337.842 C 503.455 335.017, 502.879 333.385, 501.536 332.403 C 499.078 330.605, 497.085 330.616, 496.388 332.430 M 487.434 341.073 C 485.797 342.882, 484.840 343.062, 479.894 342.488 C 475.631 341.993, 473.458 342.229, 471.115 343.441 C 467.630 345.243, 467.129 346.780, 469.750 347.630 C 470.712 347.942, 474.220 349.486, 477.544 351.060 C 485.705 354.925, 487.513 358.283, 489.597 373.437 C 491.137 384.640, 491.127 385.202, 489.354 387.162 C 486.689 390.107, 483.446 391.573, 473.929 394.137 C 466.558 396.123, 463.045 396.414, 445.938 396.454 L 426.377 396.500 421.755 400.567 C 419.213 402.804, 414.141 408.341, 410.483 412.872 C 403.423 421.616, 398.632 425.627, 390.438 429.653 C 387.655 431.021, 381.709 435.415, 377.225 439.417 C 371.814 444.248, 367.217 447.405, 363.549 448.808 C 357.038 451.300, 343.503 460.191, 342.030 462.945 C 341.463 464.003, 341 467.303, 341 470.279 C 341 477.563, 343.014 479.420, 350.960 479.466 C 358.408 479.509, 360.287 477.869, 362.393 469.486 C 363.277 465.968, 364 462.619, 364 462.044 C 364 460.376, 359.771 460.842, 356.431 462.879 C 352.303 465.396, 349 466.384, 349 465.102 C 349 464.534, 350.341 462.542, 351.981 460.675 C 354.788 457.477, 360.274 455.239, 377.191 450.388 C 378.121 450.121, 380.404 447.787, 382.264 445.201 C 386.449 439.382, 394.039 435.058, 401.403 434.298 L 406.761 433.745 407.924 437.269 C 408.764 439.814, 409.978 441.125, 412.293 441.988 C 414.057 442.645, 416.457 443.556, 417.627 444.014 C 421.346 445.467, 426.590 450.764, 428.497 454.994 C 430.142 458.642, 430.179 459.250, 428.834 460.595 C 427.489 461.939, 426.928 461.618, 423.662 457.633 C 418.850 451.760, 413.956 448.782, 409.776 449.185 C 404.069 449.734, 404.970 452.664, 413.345 460.784 C 421.383 468.578, 429.217 472.974, 435.097 472.990 C 437.861 472.998, 439.527 472.191, 442.297 469.500 C 446.834 465.094, 449.436 465.027, 452.011 469.250 C 454.559 473.429, 454.525 476.214, 451.897 478.595 C 450.212 480.121, 447.905 480.570, 440.294 480.850 C 429.523 481.247, 420.927 479.042, 413.260 473.916 C 405.076 468.444, 405.411 468.473, 400.208 472.796 C 393.004 478.782, 391.496 479.362, 386.451 478.092 C 384.066 477.491, 380.739 477, 379.057 477 C 376.447 477, 376 477.373, 376 479.550 C 376 482.290, 378.286 487.411, 380.779 490.254 C 382.103 491.764, 382.144 492.781, 381.069 497.581 C 380.383 500.647, 380.096 503.430, 380.432 503.765 C 380.767 504.101, 383.016 502.438, 385.428 500.071 C 390.967 494.635, 392.405 495.278, 391.703 502.878 C 391.417 505.970, 390.887 509.427, 390.525 510.560 C 389.919 512.453, 390.467 512.714, 397.264 513.771 C 409.471 515.669, 410 516.025, 410 522.350 L 410 527.749 415.238 529.632 C 418.644 530.857, 420.602 532.170, 420.836 533.388 C 421.360 536.107, 419.299 536.967, 412.219 536.985 C 407.391 536.996, 405.795 537.371, 405.323 538.601 C 404.354 541.126, 406.365 541.680, 419.239 542.433 C 429.340 543.023, 432.086 543.549, 436.130 545.663 L 440.959 548.188 444.376 546.077 C 447.252 544.299, 451 540.107, 451 538.667 C 451 538.445, 449.138 538.014, 446.862 537.708 C 442.702 537.150, 439 534.666, 440.337 533.329 C 440.732 532.934, 443.658 533.149, 446.838 533.806 C 453.875 535.259, 456.419 535.289, 461.151 533.975 C 465.881 532.661, 466.439 530.911, 463.869 525.444 C 461.182 519.729, 460.520 519.387, 458.312 522.575 C 450.759 533.477, 448.935 530.018, 455.050 516.388 L 457.870 510.104 455.862 507.552 C 451.763 502.341, 447.346 505.338, 444.608 515.187 C 442.408 523.101, 437.422 528.415, 431.213 529.464 C 428.527 529.918, 426.440 529.780, 425.613 529.094 C 424.789 528.410, 424.039 524.356, 423.612 518.282 C 422.834 507.210, 421.018 502.992, 416.447 501.638 C 407.303 498.930, 402 496.433, 402 494.835 C 402 492.066, 405.478 491.592, 426.126 491.545 L 445.752 491.500 450.719 486.857 C 453.450 484.303, 457.106 481.479, 458.843 480.581 C 462.701 478.586, 462.893 476.101, 459.929 466.506 C 458.558 462.065, 456.591 458.400, 454.104 455.651 C 452.040 453.368, 448.665 449.256, 446.605 446.514 C 443.293 442.106, 442.028 441.259, 435.680 439.200 C 427.579 436.572, 424.561 434.231, 422.939 429.314 C 421.338 424.463, 422.895 422.887, 428.525 423.658 C 435.042 424.552, 437.423 423.512, 441.992 417.773 C 445.313 413.602, 446.046 411.978, 445.604 409.770 C 444.967 406.585, 445.447 406.453, 450.292 408.477 C 453.414 409.782, 455.677 409.778, 469.664 408.443 C 486.628 406.823, 492.140 405.741, 493.836 403.698 C 494.423 402.990, 495.038 399.188, 495.202 395.250 L 495.500 388.089 499.676 389.963 C 503.553 391.702, 503.899 392.183, 504.499 396.668 C 505.233 402.157, 506.876 407, 508.005 407 C 510.357 407, 510.702 391.631, 508.511 384.409 C 506.469 377.679, 506.583 377, 509.753 377 C 512.519 377, 524.989 373.743, 527.014 372.492 C 529.033 371.243, 526.127 369.274, 521.493 368.752 C 519.032 368.475, 514.588 367.018, 511.617 365.515 L 506.215 362.782 502.375 365.391 C 496.909 369.105, 495.631 368.860, 496.437 364.250 C 498.223 354.033, 498.178 352.093, 496.021 346.326 C 493.108 338.542, 490.930 337.209, 487.434 341.073 M 456 342.563 C 456 344.885, 458.388 346.946, 459.634 345.699 C 460.548 344.786, 459.023 341.223, 457.462 340.624 C 456.420 340.224, 456 340.780, 456 342.563 M 340 341.864 C 336.595 342.853, 336.852 345.125, 340.500 346.297 C 347.517 348.551, 348.233 351.129, 344.897 362.112 L 342.795 369.035 346.397 376.621 C 348.379 380.794, 350 385.061, 350 386.104 C 350 389.829, 347.301 387.898, 343.913 381.750 C 340.679 375.881, 340.189 375.446, 335.870 374.608 C 331.246 373.711, 326 374.359, 326 375.827 C 326 376.260, 328.027 378.044, 330.504 379.790 C 338.230 385.236, 340.770 391.190, 341.861 406.420 C 342.273 412.177, 342.943 415.486, 343.749 415.753 C 344.436 415.980, 346.647 414.329, 348.663 412.083 C 350.679 409.837, 352.643 408, 353.027 408 C 353.846 408, 357.002 423.251, 357.001 427.201 C 356.999 432.277, 359.177 440.131, 360.753 440.736 C 363.160 441.659, 366 437.383, 366 432.837 C 366 427.491, 363.175 415.334, 360.877 410.790 C 357.611 404.334, 358.821 401.822, 363.925 404.461 L 366.909 406.004 367.394 402.752 C 367.661 400.963, 368.420 395.900, 369.080 391.500 C 369.741 387.100, 370.893 381.983, 371.641 380.128 C 373.376 375.823, 373.350 375, 371.480 375 C 370.644 375, 367.956 378.097, 365.507 381.882 C 361.448 388.157, 359.498 390, 356.918 390 C 355.132 390, 356.042 386.076, 359.500 378.860 C 361.425 374.843, 363 370.821, 363 369.923 C 363 367.185, 353.864 346.646, 351.611 344.319 C 349.268 341.898, 343.837 340.749, 340 341.864 M 364.231 354.102 C 367.726 362.512, 373.558 365.200, 391 366.441 C 399.861 367.072, 406.160 366.339, 416.829 363.436 L 423.158 361.714 421.055 359.607 C 419.129 357.678, 417.497 357.452, 401.726 356.936 C 385.189 356.394, 384.072 356.224, 373.804 352.686 C 367.921 350.659, 362.883 349, 362.609 349 C 362.335 349, 363.065 351.296, 364.231 354.102 M 511.270 349.703 C 509.442 350.056, 505 354.675, 505 356.223 C 505 356.451, 512.916 356.607, 522.591 356.569 L 540.182 356.500 536.562 353.369 C 534.572 351.647, 531.549 349.960, 529.846 349.619 C 526.502 348.950, 514.895 349.003, 511.270 349.703 M 557.368 350.484 C 556.140 353.685, 557.771 355, 562.969 355 C 566.335 355, 567.995 354.586, 567.985 353.750 C 567.955 351.358, 566.474 350.300, 562.225 349.636 C 558.892 349.115, 557.821 349.302, 557.368 350.484 M 349.459 362.250 C 347.875 367.312, 347.894 367.706, 349.980 373.250 C 352.326 379.484, 353.303 380.170, 355.088 376.835 C 357.213 372.865, 354.655 357, 351.891 357 C 351.457 357, 350.363 359.363, 349.459 362.250 M 414 369.527 C 407.675 371.393, 398.788 373.229, 394.250 373.608 C 389.712 373.986, 386 374.609, 386 374.993 C 386 375.376, 386.899 376.504, 387.998 377.498 C 389.771 379.103, 391.261 379.236, 401.248 378.684 C 407.437 378.342, 415.200 377.355, 418.500 376.490 C 421.800 375.626, 426.188 374.470, 428.250 373.921 C 430.313 373.372, 432 372.344, 432 371.636 C 432 370.148, 427.823 365.968, 426.436 366.067 C 425.921 366.104, 420.325 367.661, 414 369.527 M 478.280 369.517 C 476.489 370.771, 476.192 372.028, 476.167 378.471 C 476.150 382.594, 476.582 386.242, 477.125 386.578 C 478.900 387.674, 482.940 386.022, 484.572 383.531 C 486.030 381.306, 486.032 380.621, 484.595 375.677 C 482.646 368.975, 481.144 367.510, 478.280 369.517 M 558.250 370.973 C 555.913 372.034, 554 373.120, 554 373.386 C 554 373.652, 554.704 377.161, 555.564 381.185 C 557.144 388.580, 556.848 395.273, 554.834 397.700 C 553.345 399.494, 548.240 399.326, 541.890 397.276 C 537.940 396, 535.043 394.043, 530.753 389.753 C 524.458 383.458, 523.784 383.375, 519.156 388.323 C 514.950 392.820, 517.435 395.585, 531.928 402.535 C 543.557 408.111, 543.708 410.848, 532.613 415 C 525.402 417.699, 520 422.018, 520 425.085 C 520 427.553, 524.560 427.697, 527.932 425.335 C 530.246 423.714, 530.400 423.769, 533.741 427.415 C 535.629 429.475, 537.291 431.011, 537.434 430.830 C 537.578 430.648, 538.219 427.811, 538.860 424.524 C 539.500 421.237, 540.686 417.885, 541.496 417.075 C 543.309 415.263, 549.952 415.318, 551.117 417.155 C 551.586 417.895, 551.983 422.550, 552 427.500 C 552.017 432.450, 552.461 437.175, 552.987 438 C 554.495 440.365, 557.116 438.054, 558.591 433.059 C 559.296 430.669, 561.502 427.046, 563.492 425.008 L 567.110 421.303 561.305 418.401 C 557.134 416.317, 555.500 414.937, 555.500 413.500 C 555.500 411.794, 556.267 411.456, 560.710 411.199 C 565.492 410.923, 566.251 410.522, 569.960 406.308 C 574.268 401.413, 575.341 397, 572.223 397 C 570.273 397, 566.870 399.060, 563 402.582 C 559.524 405.745, 555.463 406.649, 554.618 404.448 C 553.760 402.211, 555.462 400.277, 558.965 399.508 C 564.440 398.305, 564.799 397.194, 566.645 375.750 C 567.213 369.153, 567.172 369, 564.863 369.022 C 563.563 369.034, 560.587 369.912, 558.250 370.973 M 468.676 374.755 C 466.778 375.928, 464.892 378.786, 462.926 383.471 C 461.317 387.305, 460 390.568, 460 390.721 C 460 390.875, 461.146 391, 462.548 391 C 463.950 391, 466.092 389.925, 467.311 388.610 C 470.779 384.867, 474.539 372.989, 472.250 373.005 C 471.837 373.008, 470.229 373.796, 468.676 374.755 M 429 378.469 C 421.585 381.857, 411.336 385, 407.707 385 C 406.646 385, 406.019 385.543, 406.261 386.250 C 406.582 387.187, 410.654 387.465, 422.551 387.361 L 438.412 387.223 441.206 384.095 C 444.660 380.229, 444.902 376.475, 441.750 375.630 C 438.022 374.631, 436.809 374.901, 429 378.469 M 453.358 379.327 C 446.773 385.192, 440.945 389, 438.554 389 C 436.699 389, 436.679 389.108, 438.248 390.676 C 440.768 393.197, 449.106 393.048, 452.675 390.419 C 455.600 388.263, 462 378.570, 462 376.294 C 462 373.725, 458.119 375.087, 453.358 379.327 M 627.591 405.853 C 627.365 406.218, 626.668 411.914, 626.042 418.509 C 624.842 431.156, 621.126 447.548, 615.504 465 C 611.657 476.942, 603.868 496.250, 601.979 498.526 C 600.156 500.721, 601.245 501.217, 603.863 499.384 C 605.096 498.520, 605.915 497.293, 605.683 496.657 C 605.451 496.021, 605.830 494.825, 606.526 494 C 608.081 492.157, 614.998 478.604, 615.006 477.383 C 615.010 476.898, 615.625 475.327, 616.373 473.892 C 617.121 472.458, 618.932 467.440, 620.397 462.740 C 621.861 458.040, 623.721 453.646, 624.530 452.975 C 625.372 452.276, 626 450.057, 626 447.779 C 626 445.592, 626.638 442.384, 627.418 440.651 C 629.196 436.702, 630.806 427.038, 631.637 415.331 C 632.250 406.690, 632.187 406.282, 630.140 405.747 C 628.964 405.439, 627.817 405.487, 627.591 405.853 M 483.188 422.909 C 479.510 426.708, 475.540 430.097, 474.367 430.439 C 473.194 430.781, 466.094 430.570, 458.591 429.971 C 444.282 428.829, 441.568 429.079, 440.589 431.629 C 439.733 433.860, 442.928 440.022, 445.436 440.976 C 446.607 441.421, 449.789 443.482, 452.506 445.557 C 460.309 451.512, 468.934 455, 475.861 455 C 482.260 455, 482.953 454.299, 482.986 447.797 C 483.017 441.683, 486.266 438.444, 490.717 440.091 C 492.312 440.681, 493.036 442.060, 493.550 445.484 C 494.546 452.127, 492.028 458.014, 486.027 463.074 C 481.362 467.008, 481.159 467.413, 478.615 477.890 C 475.209 491.921, 475.239 492.655, 479.297 494.351 C 481.110 495.108, 483.875 497.252, 485.442 499.114 C 488.182 502.371, 488.572 502.504, 495.645 502.612 L 503 502.725 503 498.930 C 503 494.675, 505.383 493.064, 508.896 494.945 C 512.122 496.671, 514.850 496.158, 516.592 493.500 C 517.719 491.779, 519.139 491, 521.146 491 C 524.682 491, 525.585 489.117, 524.097 484.847 C 523.188 482.240, 523.279 481.349, 524.606 479.883 C 525.961 478.385, 527.257 478.193, 532.612 478.693 C 540.004 479.383, 540.427 478.718, 536.941 471.885 C 533.886 465.895, 534.525 464.725, 541.508 463.527 C 547.079 462.572, 547.523 462.298, 547.828 459.625 C 548.133 456.958, 547.952 456.788, 545.328 457.281 C 543.773 457.573, 540.387 458.629, 537.805 459.628 C 535.224 460.627, 532.838 461.171, 532.503 460.837 C 532.169 460.502, 533.663 457.495, 535.823 454.153 L 539.750 448.077 538.318 441.879 C 535.971 431.719, 532.447 426.870, 528.972 429.018 C 527.778 429.755, 527.907 430.629, 529.775 434.475 C 532.243 439.553, 532.769 444.531, 530.750 443.698 C 530.063 443.414, 527.813 442.460, 525.750 441.577 C 523.688 440.695, 522 440.140, 522 440.344 C 522 440.549, 523.575 443.737, 525.500 447.431 C 530.713 457.432, 530.135 461, 523.303 461 C 521.711 461, 519.605 462.255, 517.635 464.376 C 513.114 469.245, 506.104 470.732, 500.872 467.931 C 499.071 466.967, 498.836 466.146, 499.268 462.314 C 499.546 459.846, 500.197 457.403, 500.714 456.886 C 501.230 456.370, 503.981 455.671, 506.827 455.334 C 509.672 454.997, 512 454.479, 512 454.182 C 512 453.885, 511.460 452.149, 510.800 450.325 C 509.670 447.198, 509.792 446.810, 512.913 443.590 C 514.734 441.711, 516.034 439.602, 515.802 438.905 C 515.569 438.207, 512.706 436.020, 509.439 434.045 C 505.008 431.366, 502.230 428.633, 498.500 423.283 C 495.515 419.001, 492.770 416.089, 491.688 416.056 C 490.692 416.025, 486.867 419.109, 483.188 422.909 M 275.313 423.405 C 274.141 425.500, 274.802 434.935, 276.249 436.750 C 278.470 439.538, 279.250 437.922, 278.572 431.932 C 278.194 428.595, 277.532 424.908, 277.100 423.740 C 276.367 421.759, 276.247 421.737, 275.313 423.405 M 279.250 441.736 C 277.893 442.204, 277.556 449.528, 278.641 454.956 C 279.115 457.325, 279.529 457.814, 280.228 456.831 C 280.901 455.883, 281.031 456.148, 280.680 457.750 C 280.409 458.988, 280.491 460, 280.863 460 C 281.235 460, 282.600 463.938, 283.898 468.750 C 285.195 473.563, 287.549 479.564, 289.129 482.088 C 290.708 484.611, 292 487.128, 292 487.683 C 292 488.722, 295.213 492, 296.231 492 C 296.547 492, 294.797 487.438, 292.343 481.861 C 288.556 473.256, 285.113 461.720, 281.313 444.902 C 280.814 442.693, 280.018 441.471, 279.250 441.736 M 263.627 464.649 C 264.136 466.679, 263.987 467.110, 262.988 466.493 C 261.992 465.877, 261.857 466.254, 262.415 468.094 C 262.816 469.417, 263.187 471.063, 263.239 471.750 C 263.291 472.438, 263.543 472.791, 263.798 472.535 C 264.054 472.280, 265.060 472.497, 266.033 473.018 C 267.528 473.818, 267.725 473.617, 267.296 471.733 C 265.607 464.300, 264.815 462, 263.942 462 C 263.381 462, 263.246 463.133, 263.627 464.649 M 280.030 463.889 C 279.996 466.625, 285.796 486, 286.650 486 C 286.960 486, 286.904 485.212, 286.524 484.250 C 286.145 483.288, 284.951 478.486, 283.872 473.579 C 281.740 463.894, 280.084 459.715, 280.030 463.889 M 267.064 478.050 C 267.099 479.397, 268.628 484.325, 270.463 489 C 272.993 495.447, 273.978 497.055, 274.541 495.659 C 274.987 494.553, 274.596 492.375, 273.561 490.205 C 272.613 488.218, 271.155 484.546, 270.321 482.046 C 268.469 476.495, 266.976 474.663, 267.064 478.050 M 628.615 490.465 C 627.727 491.820, 627 493.845, 627 494.965 C 627 496.084, 626.605 497, 626.121 497 C 625.638 497, 624.690 498.462, 624.014 500.250 C 621.846 505.986, 617.787 513.428, 615.425 516 C 614.162 517.375, 612.248 520.525, 611.171 523 C 610.094 525.475, 607.590 529.244, 605.606 531.376 C 600.813 536.527, 600.977 537.912, 605.824 533.210 C 614.088 525.192, 621.278 514.324, 626.875 501.392 C 631.624 490.417, 632.401 488, 631.182 488 C 630.659 488, 629.503 489.109, 628.615 490.465 M 288.031 490.101 C 288.062 491.496, 292.985 500.126, 292.995 498.803 C 292.998 498.420, 291.875 495.990, 290.500 493.404 C 289.125 490.818, 288.014 489.332, 288.031 490.101 M 275.238 497.666 C 274.328 498.033, 274.871 499.854, 277.186 504.198 C 279.733 508.977, 280.531 509.837, 281.050 508.360 C 281.756 506.352, 278.450 499, 276.840 499 C 276.313 499, 276.160 498.550, 276.500 498 C 277.169 496.918, 277.124 496.906, 275.238 497.666 M 598.459 504.750 C 597.485 506.262, 592.644 511.644, 587.701 516.709 C 581.204 523.365, 576.328 527.291, 570.106 530.876 C 560.265 536.546, 545.715 543.116, 535.500 546.502 C 509.419 555.147, 479.783 568.398, 471.856 574.957 L 469.500 576.907 472 576.203 C 473.375 575.817, 479 572.968, 484.500 569.873 C 490 566.777, 496.975 563.307, 500 562.160 C 503.025 561.013, 510.675 557.985, 517 555.431 C 523.325 552.877, 532.495 549.467, 537.378 547.853 C 558.938 540.725, 576.117 531.298, 587.339 520.434 C 591.552 516.355, 595 512.338, 595 511.509 C 595 510.679, 595.420 510, 595.933 510 C 596.446 510, 597.135 509.149, 597.466 508.108 C 597.796 507.067, 598.951 505.984, 600.033 505.702 C 601.115 505.419, 602 504.470, 602 503.594 C 602 501.172, 600.434 501.684, 598.459 504.750 M 312.831 516.752 C 315.148 520.017, 318.917 523.179, 324.500 526.543 C 327.312 528.237, 318.679 519.894, 313.074 515.500 L 310.523 513.500 312.831 516.752 M 287.451 520.080 C 287.073 520.691, 287.492 521.920, 288.382 522.810 C 289.873 524.301, 290 524.259, 290 522.273 C 290 519.780, 288.457 518.452, 287.451 520.080 M 292 526.596 C 292 527.691, 303.064 539.812, 305.550 541.441 C 309.699 544.160, 308.298 541.834, 300.916 533.750 C 294.607 526.842, 292 524.750, 292 526.596 M 331 531.032 C 334.528 534.270, 351.088 542.676, 358.500 544.991 C 360.700 545.678, 368.575 548.717, 376 551.745 C 383.425 554.772, 394.412 559.230, 400.415 561.651 C 417.174 568.410, 433.500 578.515, 440.887 586.700 C 447.719 594.269, 449.167 593.983, 443.030 586.276 C 436.517 578.095, 421.286 567.818, 406.500 561.625 C 398.059 558.090, 368.007 546.411, 365 545.498 C 356.963 543.055, 335.107 533.490, 331.615 530.887 L 327.500 527.819 331 531.032 M 330 543.832 C 330 546.412, 344.732 553.857, 357 557.478 C 359.475 558.208, 369.600 561.817, 379.500 565.497 C 389.400 569.177, 398.850 572.674, 400.500 573.268 C 406.027 575.258, 423.414 584.924, 431.949 590.750 C 438.420 595.167, 441.621 598.222, 445.615 603.793 L 450.832 611.067 455.324 605.283 C 457.795 602.102, 462.034 597.475, 464.745 595 C 470.937 589.345, 490.526 578.344, 503 573.517 C 508.225 571.495, 516.325 568.318, 521 566.458 C 525.675 564.599, 533.617 561.755, 538.648 560.139 C 547.592 557.267, 564.611 549.311, 569.177 545.867 C 573.664 542.482, 570.049 542.876, 563.980 546.432 C 558.168 549.839, 547.490 554.284, 538.500 557.040 C 536.300 557.714, 529.550 560.271, 523.500 562.722 C 517.450 565.172, 510.016 567.985, 506.980 568.973 C 498.588 571.705, 483.537 579.010, 473.500 585.224 C 462.737 591.888, 456.798 594.692, 451.750 595.495 C 449.397 595.869, 448 596.636, 448 597.554 C 448 599.554, 438.017 593.959, 431.874 588.516 C 429.330 586.262, 421.905 581.587, 415.374 578.127 C 403.144 571.647, 396.419 568.909, 363 556.805 C 352.275 552.921, 340.462 548.220, 336.750 546.359 C 333.038 544.498, 330 543.361, 330 543.832 M 474.877 596.807 C 465.210 603.358, 458.668 610.930, 455.675 619.033 C 452.993 626.294, 453.741 628.061, 456.878 621.875 C 461.691 612.386, 465.747 607.309, 472.513 602.302 C 476.081 599.661, 479 597.189, 479 596.809 C 479 595.223, 477.215 595.222, 474.877 596.807 M 431 602.116 C 431 602.730, 433.438 605.866, 436.419 609.086 C 439.399 612.305, 442.857 616.752, 444.103 618.969 C 446.839 623.838, 448.175 624.162, 447.321 619.750 C 446.519 615.606, 442.309 609.416, 437.082 604.693 C 432.916 600.930, 431 600.118, 431 602.116" stroke="none" fill="#e3b487" fill-rule="evenodd"/><path d="M 446.370 119.683 C 429.059 146.964, 417.768 160.278, 401.858 172.169 C 395.601 176.845, 388.681 181.807, 386.481 183.196 C 377.228 189.037, 359.480 197.230, 345 202.345 C 331.619 207.070, 325.259 208.595, 298.500 213.494 C 280.080 216.866, 262.745 219.459, 255.783 219.885 C 249.338 220.279, 243.827 220.839, 243.536 221.131 C 243.244 221.422, 243.634 223.650, 244.401 226.080 C 246.729 233.453, 250.562 299.171, 251.503 347.836 C 251.955 371.204, 256.063 426.915, 258.483 442.500 C 261.213 460.076, 262.310 465.650, 263.205 466.500 C 263.936 467.194, 264.060 466.659, 263.610 464.750 C 263.240 463.179, 263.382 462, 263.942 462 C 264.818 462, 265.586 464.234, 267.318 471.815 C 267.824 474.030, 267.746 474.064, 265.517 472.603 C 263.224 471.101, 263.194 471.128, 263.645 474.288 C 264.676 481.516, 270.517 498.066, 275.700 508.446 C 291.273 539.632, 301.010 550.686, 324.636 564 C 338.310 571.706, 346.041 574.965, 372.105 584.015 C 397.347 592.779, 414.435 600.184, 423.277 606.188 C 426.483 608.365, 433.081 614.051, 437.940 618.823 C 447.346 628.061, 447.365 628.099, 448.526 640.315 C 448.961 644.899, 449.650 647.312, 450.630 647.688 C 452.753 648.503, 453.086 647.827, 454.008 640.830 C 455.265 631.293, 457.575 625.876, 462.960 619.834 C 471.348 610.423, 483.867 602.845, 509.500 591.663 C 512.800 590.224, 523.600 586.289, 533.500 582.921 C 565.224 572.125, 588.444 559.407, 602.140 545.327 C 623.077 523.801, 638.641 488.425, 642.980 452.500 C 643.445 448.650, 644.736 438.075, 645.849 429 C 646.961 419.925, 648.375 401.025, 648.990 387 C 649.604 372.975, 650.544 353.850, 651.077 344.500 C 651.610 335.150, 652.269 313.100, 652.541 295.500 C 652.813 277.900, 653.490 259.675, 654.044 255 C 655.833 239.930, 657.171 222.888, 656.669 221.580 C 656.333 220.703, 652.643 220.121, 644.840 219.712 C 638.603 219.386, 629 218.216, 623.500 217.112 C 618 216.008, 604.725 213.528, 594 211.600 C 561.906 205.831, 532.589 194.789, 512.301 180.830 C 503.267 174.613, 486.122 160.179, 478.896 152.707 C 473.917 147.559, 460.237 127.876, 456.520 120.513 C 454.858 117.221, 452.725 114.378, 451.780 114.196 C 450.601 113.969, 448.901 115.693, 446.370 119.683 M 447.824 130.773 C 445.821 132.990, 441.554 138.555, 438.342 143.139 C 430.677 154.077, 407.731 177.121, 397 184.657 C 384.875 193.171, 377.714 196.884, 358.913 204.403 C 342.170 211.100, 333.565 213.840, 320.597 216.605 C 308.947 219.090, 279.315 224.042, 267 225.564 C 260.675 226.345, 254.874 227.223, 254.109 227.515 C 252.983 227.944, 252.849 229.962, 253.409 238.090 C 253.790 243.615, 254.562 249.342, 255.126 250.818 C 255.703 252.330, 256.757 275.960, 257.542 305 C 259.204 366.467, 260.537 392.151, 262.539 401.249 C 263.355 404.961, 264.474 413.736, 265.024 420.749 C 266.197 435.700, 265.973 434.443, 271.564 457.500 C 276.028 475.907, 280.920 490.414, 285.271 498.151 C 286.617 500.543, 288.726 504.300, 289.958 506.500 C 296.114 517.486, 313.213 534.996, 324.182 541.545 C 327.657 543.620, 331.301 546.003, 332.280 546.841 C 334.357 548.618, 350.460 555.548, 357 557.478 C 359.475 558.208, 369.600 561.817, 379.500 565.497 C 389.400 569.177, 398.850 572.674, 400.500 573.268 C 406.027 575.258, 423.414 584.924, 431.949 590.750 C 438.420 595.167, 441.621 598.222, 445.615 603.793 L 450.832 611.067 455.324 605.283 C 457.795 602.102, 462.034 597.475, 464.745 595 C 470.937 589.345, 490.526 578.344, 503 573.517 C 508.225 571.495, 516.325 568.318, 521 566.458 C 525.675 564.599, 533.617 561.755, 538.648 560.139 C 547.592 557.267, 564.611 549.311, 569.177 545.867 C 573.664 542.482, 570.049 542.876, 563.980 546.432 C 558.168 549.839, 547.490 554.284, 538.500 557.040 C 536.300 557.714, 529.550 560.271, 523.500 562.722 C 517.450 565.172, 510.016 567.985, 506.980 568.973 C 498.588 571.705, 483.537 579.010, 473.500 585.224 C 462.737 591.888, 456.798 594.692, 451.750 595.495 C 449.397 595.869, 448 596.636, 448 597.554 C 448 599.554, 438.017 593.959, 431.874 588.516 C 429.330 586.262, 421.905 581.591, 415.374 578.136 C 403.362 571.780, 395.832 568.712, 361.500 556.186 C 331.739 545.327, 326.525 542.453, 314.005 530 C 303.230 519.283, 293.140 505.201, 294.573 502.881 C 295.071 502.077, 294.880 501.956, 293.985 502.510 C 293.037 503.095, 292.833 502.878, 293.267 501.747 C 293.616 500.837, 293.264 499.932, 292.437 499.614 C 291.647 499.311, 291.007 498.486, 291.015 497.781 C 291.026 496.885, 291.322 496.951, 292 498 C 292.533 498.825, 292.976 499.139, 292.985 498.698 C 293.006 497.604, 288.699 489.653, 287.678 488.899 C 287.226 488.566, 286.703 487.215, 286.517 485.897 C 285.797 480.805, 281.863 464.580, 280.985 463.079 C 280.196 461.731, 280.043 461.792, 279.940 463.500 C 279.733 466.950, 274.086 437.968, 273.024 428 C 272.468 422.775, 271.723 417.212, 271.368 415.639 C 270.777 413.012, 270.911 412.837, 273.004 413.501 L 275.284 414.225 274.554 401.409 C 274.152 394.360, 273.377 384.972, 272.831 380.547 C 272.285 376.121, 271.480 349.550, 271.042 321.500 C 270.394 280.007, 269.950 269.382, 268.658 264.500 C 267.772 261.148, 267.056 254.386, 267.036 249.178 L 267 239.856 261.547 240.537 C 256.200 241.205, 256.079 241.165, 255.399 238.455 C 254.037 233.027, 255.715 232.154, 271.500 230.080 C 283.591 228.491, 317.637 222.431, 325 220.557 C 350.326 214.113, 382.607 199.560, 399.569 186.940 C 412.934 176.997, 424.347 165.341, 437.359 148.348 C 444.923 138.469, 448.926 134.056, 450.616 133.733 C 452.746 133.326, 454.409 135.086, 464.453 148.385 C 476.431 164.243, 480.669 168.714, 495.655 181.295 C 523.262 204.471, 565.947 221.675, 609 226.978 C 614.225 227.622, 620.103 228.560, 622.062 229.062 C 624.021 229.565, 630.019 230.432, 635.391 230.989 C 640.763 231.546, 646.247 232.275, 647.579 232.609 C 649.574 233.110, 650 232.841, 650 231.084 C 650 228.340, 647.355 227.353, 636.267 225.962 C 631.445 225.357, 622.775 224.007, 617 222.962 C 611.225 221.917, 599.975 219.876, 592 218.426 C 565.678 213.640, 528.765 200.319, 513.603 190.133 C 502.367 182.585, 485.144 168.862, 479.357 162.846 C 475.125 158.447, 465.178 145.636, 453.483 129.522 L 451.465 126.743 447.824 130.773 M 454 144.542 C 454 145.414, 461.196 155.399, 466.583 162 C 469.500 165.575, 477.425 173.977, 484.193 180.670 C 496.606 192.945, 507.883 200.881, 525.500 209.739 C 550.466 222.292, 580.605 230.300, 618.693 234.501 C 626.417 235.353, 636.043 236.680, 640.085 237.450 C 647.852 238.930, 649 238.792, 649 236.382 C 649 235.557, 648.572 235.147, 648.049 235.470 C 647.526 235.793, 642.463 235.356, 636.799 234.498 C 631.134 233.640, 621.100 232.253, 614.500 231.417 C 588.219 228.085, 565.719 222.398, 539.985 212.583 C 524.637 206.729, 519.720 204.065, 498.940 190.342 C 490.928 185.052, 472.125 165.523, 462.387 152.378 C 457.937 146.372, 454 142.693, 454 144.542 M 439.423 152.250 C 431.220 164.974, 406.958 188.240, 389.632 199.997 C 380.029 206.514, 360.470 216.465, 353.571 218.343 C 350.782 219.102, 344.900 220.485, 340.500 221.415 C 336.100 222.345, 329.575 223.748, 326 224.532 C 322.425 225.315, 316.429 226.430, 312.675 227.009 C 308.922 227.589, 302.397 228.724, 298.175 229.532 C 293.954 230.341, 286.675 231.460, 282 232.019 C 270.233 233.427, 267.876 233.990, 268.631 235.212 C 270.843 238.792, 336.743 226.653, 356.918 218.949 C 369.055 214.315, 391.077 202.791, 400 196.405 C 405.225 192.665, 414.827 184.182, 421.338 177.553 C 433.571 165.097, 447 148.781, 447 146.373 C 447 143.032, 443.731 145.567, 439.423 152.250 M 375.319 242.884 C 369.558 247.057, 367.996 251.074, 368.022 261.651 C 368.048 272.175, 369.109 274.933, 378.733 289.499 C 386.729 301.602, 390.854 307, 392.105 307 C 392.621 307, 393.539 305.911, 394.146 304.579 C 395.088 302.511, 394.587 300.729, 390.695 292.329 C 388.191 286.923, 384.975 278.619, 383.549 273.875 C 381.129 265.829, 381 264.401, 381.630 252.625 C 382.399 238.238, 382.186 237.909, 375.319 242.884 M 635.681 243.628 C 635.096 247.317, 633.476 276.531, 632.611 299 C 632.388 304.775, 631.740 316.025, 631.171 324 C 630.601 331.975, 629.851 348.105, 629.504 359.843 C 628.957 378.352, 629.077 381.341, 630.407 382.343 C 632.080 383.605, 632.509 387.553, 632.201 398.867 C 632.015 405.694, 631.854 406.195, 630.001 405.711 C 628.902 405.423, 627.817 405.487, 627.591 405.853 C 627.365 406.218, 626.668 411.914, 626.042 418.509 C 624.842 431.156, 621.126 447.548, 615.504 465 C 611.657 476.942, 603.868 496.250, 601.979 498.526 C 600.156 500.721, 601.245 501.217, 603.863 499.384 C 605.096 498.520, 605.915 497.293, 605.683 496.657 C 605.451 496.021, 605.830 494.825, 606.526 494 C 608.172 492.049, 614.576 479.227, 615.516 476 C 615.917 474.625, 616.579 473.050, 616.988 472.500 C 617.397 471.950, 618.930 467.606, 620.395 462.848 C 621.861 458.089, 623.694 453.669, 624.470 453.025 C 626.658 451.209, 620.931 471.442, 614.653 487.705 C 609.943 499.908, 603.652 512.854, 600.802 516.212 C 599.536 517.703, 597.010 520.744, 595.188 522.968 C 593.367 525.193, 588.642 529.795, 584.688 533.195 C 577.683 539.220, 571.958 545.338, 575.018 543.528 C 596.638 530.741, 613.587 510.424, 622.173 487 C 623.282 483.975, 625.542 477.911, 627.194 473.524 C 630.567 464.572, 632.421 456.917, 634.589 443 C 635.402 437.775, 636.728 430.256, 637.534 426.292 C 638.340 422.328, 639.003 415.803, 639.008 411.792 C 639.012 407.781, 639.418 401.800, 639.910 398.500 C 641.825 385.655, 643.006 364.237, 643.410 335 C 643.642 318.225, 644.336 296.850, 644.952 287.500 C 645.568 278.150, 646.480 264.200, 646.978 256.500 C 647.477 248.800, 647.538 242.151, 647.116 241.723 C 646.693 241.296, 644.085 240.679, 641.321 240.352 L 636.295 239.756 635.681 243.628 M 450.035 249.934 C 448.369 253.048, 448.825 254.963, 451.527 256.194 C 455.307 257.917, 456.506 256.148, 454.619 251.632 C 452.921 247.567, 451.570 247.067, 450.035 249.934 M 421.063 250.424 C 419.542 252.257, 421.068 258.210, 425.113 266.225 C 429.525 274.964, 430.478 274.143, 431.572 260.662 L 432.260 252.186 429.180 250.593 C 425.366 248.621, 422.607 248.563, 421.063 250.424 M 356.197 255.109 C 354.006 257.351, 352.971 259.578, 352.488 263.090 C 351.302 271.712, 352.500 274.869, 362.416 289.248 C 367.517 296.645, 373.432 305.518, 375.560 308.966 C 377.688 312.414, 380.570 315.952, 381.965 316.828 C 383.359 317.704, 387.087 320.377, 390.250 322.769 C 393.413 325.160, 396 326.741, 396 326.283 C 396 324.748, 386.830 310.544, 383.551 307 C 379.192 302.288, 377.373 299.533, 368.287 283.893 L 360.508 270.500 360.691 261.250 C 360.791 256.163, 360.505 252, 360.055 252 C 359.605 252, 357.869 253.399, 356.197 255.109 M 439.138 255.914 C 432.844 259.804, 464.061 273.571, 471.496 270.184 C 474.349 268.884, 475.743 266.343, 474.362 264.962 C 473.864 264.464, 470.107 263.582, 466.012 263.002 C 461.917 262.421, 457.628 261.331, 456.482 260.580 C 454.405 259.219, 447.762 256.805, 442.992 255.676 C 441.612 255.350, 439.878 255.457, 439.138 255.914 M 407.156 263.529 C 406.061 264.921, 404.866 267.835, 404.499 270.006 C 403.719 274.624, 400.057 280.500, 397.960 280.500 C 396.882 280.500, 396.421 278.979, 396.198 274.687 C 395.947 269.856, 395.611 268.928, 394.206 269.199 C 393.276 269.378, 391.920 270.766, 391.193 272.284 C 390.071 274.623, 390.119 275.896, 391.503 280.657 C 392.482 284.025, 394.152 287.117, 395.676 288.386 C 403.809 295.152, 406.367 297.771, 408.650 301.666 C 410.047 304.050, 411.340 306, 411.522 306 C 411.705 306, 411.621 300.262, 411.336 293.250 C 410.887 282.227, 411.092 279.662, 412.846 274.315 C 416.250 263.938, 412.470 256.773, 407.156 263.529 M 439.621 271.250 C 439.970 275.238, 440.535 278.788, 440.878 279.139 C 441.220 279.491, 444.086 280.516, 447.247 281.416 C 452.421 282.891, 453.288 282.902, 455.934 281.534 C 460.368 279.241, 460.429 278.273, 456.285 276.010 C 454.203 274.873, 449.822 271.706, 446.550 268.971 C 443.277 266.237, 440.236 264, 439.793 264 C 439.349 264, 439.272 267.262, 439.621 271.250 M 472.799 275.361 C 461.113 282.020, 455.068 286.859, 451.802 292.168 L 448.828 297 441.414 297 C 435.490 297, 434 297.302, 434 298.500 C 434 301.634, 437.797 304, 442.826 304 C 448.669 304, 451.082 306.198, 452.981 313.250 C 453.684 315.863, 454.764 317.990, 455.380 317.978 C 455.996 317.966, 458.421 317.084, 460.768 316.019 C 464.323 314.405, 466.115 314.212, 471.501 314.860 C 475.057 315.288, 478.504 315.307, 479.160 314.901 C 479.878 314.457, 475.711 311.854, 468.676 308.352 C 462.254 305.156, 457 302.194, 457 301.770 C 457 300.635, 461.822 300.834, 464.121 302.065 C 468.213 304.254, 468.246 302.223, 464.192 297.824 C 461.886 295.323, 460 292.790, 460 292.195 C 460 291.601, 460.893 289.600, 461.985 287.749 C 464.365 283.715, 469.660 280.994, 476.500 280.288 C 481.499 279.772, 481.537 279.790, 483.562 283.635 C 484.863 286.106, 486.301 287.500, 487.549 287.500 C 489.212 287.500, 489.492 286.814, 489.443 282.848 C 489.380 277.664, 485.292 271, 482.175 271 C 481.227 271, 477.008 272.962, 472.799 275.361 M 557.451 275.337 C 557.129 276.623, 557.008 282.474, 557.182 288.339 C 557.357 294.205, 557.217 299.003, 556.871 299.002 C 556.526 299.001, 553.464 296.364, 550.067 293.141 C 544.990 288.325, 543.991 286.857, 544.455 284.891 C 544.766 283.576, 544.600 281.854, 544.086 281.064 C 542.611 278.796, 540.251 281.417, 538.520 287.243 C 537.045 292.211, 537.202 294, 539.114 294 C 540.593 294, 551.137 301.386, 553.886 304.348 C 555.602 306.196, 556.273 308.081, 556.273 311.051 C 556.273 316.532, 553.480 319.135, 544.500 322.024 C 532.616 325.847, 530.231 327.416, 528.956 332.251 C 528.339 334.588, 526.751 338.462, 525.427 340.860 L 523.018 345.219 526.759 344.536 C 531.833 343.608, 534.331 341.833, 537.940 336.587 C 540.481 332.893, 541.911 331.877, 546.403 330.571 C 549.376 329.707, 552.062 329, 552.373 329 C 553.094 329, 552.298 331.346, 549.658 337 C 547.011 342.667, 546.021 355, 548.213 355 C 552.486 355, 557.799 344.701, 557.848 336.319 C 557.870 332.605, 558.659 328.215, 559.825 325.319 C 560.891 322.669, 562.155 318.704, 562.632 316.509 C 563.372 313.110, 564.598 311.691, 570.915 306.930 C 579.032 300.811, 580.427 298.489, 579.453 292.722 C 578.540 287.318, 576.144 288.204, 573.433 294.948 C 571.408 299.986, 567.174 305, 564.944 305 C 563.423 305, 563.860 293.578, 565.535 289.569 C 567.305 285.333, 566.760 280.779, 563.926 276.118 C 561.634 272.350, 558.302 271.948, 557.451 275.337 M 567 273.533 C 567 274.952, 572.150 284, 572.958 284 C 575.865 284, 575.294 278.766, 572 275.230 C 570.136 273.229, 567 272.165, 567 273.533 M 346.376 278.639 C 345.624 281.635, 347.596 299.472, 349.343 305.476 C 350.363 308.982, 351.359 309.927, 357.773 313.476 C 361.773 315.689, 368.854 320.650, 373.509 324.500 C 378.164 328.350, 384.816 333.075, 388.290 335 C 391.765 336.925, 395.882 339.512, 397.439 340.750 C 400.516 343.196, 405 343.773, 405 341.723 C 405 338.710, 401.258 335.668, 392.537 331.593 C 384.117 327.659, 382.958 326.776, 380.422 322.371 C 378.880 319.692, 373.683 313.675, 368.874 309 C 360.021 300.394, 358.467 297.918, 351.140 280.750 C 348.861 275.410, 347.354 274.742, 346.376 278.639 M 427.500 281.130 C 416.101 290.253, 414.772 292.004, 419.250 291.996 C 423.842 291.989, 429.226 287.100, 434.389 278.250 C 435.841 275.760, 432.425 277.189, 427.500 281.130 M 438.190 283.319 C 436.700 285.191, 434 290.792, 434 292.012 C 434 292.768, 435.515 292.900, 438.750 292.425 C 446.162 291.337, 448.185 290.313, 447.819 287.839 C 447.414 285.100, 439.667 281.464, 438.190 283.319 M 464.133 288.918 C 461.946 290.270, 463.984 292.433, 473.633 299 C 485.620 307.159, 485.742 307.226, 486.467 306.053 C 487.764 303.954, 474.040 291.487, 467.837 289.128 C 466.460 288.605, 464.793 288.510, 464.133 288.918 M 501.478 296.750 C 501.142 298.813, 500.158 302.177, 499.292 304.227 C 497.989 307.310, 497.942 308.226, 499.021 309.525 C 502.412 313.611, 506.959 308.849, 506.985 301.184 C 507.013 293.158, 502.640 289.637, 501.478 296.750 M 400.024 303.677 C 400.037 304.680, 400.468 307.075, 400.982 309 C 401.495 310.925, 402.807 316.013, 403.896 320.306 C 406.132 329.124, 418.010 350.318, 422.769 353.982 C 436.934 364.889, 442.494 367.952, 449.304 368.605 C 452.162 368.878, 456.159 369.592, 458.187 370.190 C 461.365 371.128, 462.857 370.914, 468.994 368.639 C 472.910 367.188, 476.989 366, 478.057 366 C 479.638 366, 480 365.296, 480 362.223 C 480 357.071, 477.706 354.202, 471.333 351.384 L 465.941 348.999 459.749 351.606 C 455.049 353.584, 452.413 354.102, 448.812 353.756 C 442.440 353.144, 441.010 351.755, 440.955 346.128 C 440.887 339.211, 439.240 336.668, 431.040 330.820 C 426.589 327.646, 419.446 320.862, 413.330 314 C 403.146 302.576, 399.977 300.117, 400.024 303.677 M 427.357 303.512 C 426.786 305.001, 427.658 312.946, 428.687 315.628 C 428.977 316.383, 429.616 317, 430.107 317 C 431.106 317, 431.339 306.048, 430.393 303.582 C 429.625 301.579, 428.112 301.545, 427.357 303.512 M 584.430 304.421 C 583.416 308.463, 584.282 310.500, 587.014 310.500 C 590.147 310.500, 590.958 306.716, 588.425 303.918 C 586.127 301.378, 585.164 301.499, 584.430 304.421 M 439 310.035 C 439 312.806, 446.485 320, 449.368 320 C 451.384 320, 449.428 315.716, 445.997 312.616 C 442.095 309.091, 439 307.949, 439 310.035 M 349.028 315 C 349.036 316.375, 350.144 320.650, 351.492 324.500 C 354.591 333.359, 357.902 336.348, 372.500 343.467 C 383.644 348.901, 403.835 355, 410.682 355 C 413.739 355, 413.968 354.808, 413.020 353.038 C 412.348 351.781, 409.369 350.301, 404.736 348.921 C 397.139 346.659, 378.994 337.974, 370.500 332.535 C 367.750 330.774, 361.791 325.546, 357.257 320.917 C 350.060 313.569, 349.015 312.817, 349.028 315 M 436.583 317.643 C 436.237 318.547, 436.855 320.910, 437.959 322.893 C 439.062 324.877, 441.760 329.953, 443.955 334.174 C 448.254 342.441, 449.731 344.034, 451.096 341.878 C 453.275 338.438, 452.058 333.977, 447.639 329.207 C 445.240 326.618, 442.085 322.587, 440.626 320.250 C 437.643 315.468, 437.463 315.352, 436.583 317.643 M 454.092 323.402 C 450.868 326.834, 451.663 329.978, 456.430 332.645 C 461.386 335.420, 466.890 336.511, 468.380 335.016 C 469.207 334.186, 468.280 332.796, 464.829 329.696 C 462.260 327.388, 459.657 324.488, 459.044 323.250 C 457.634 320.404, 456.887 320.427, 454.092 323.402 M 518.744 323.750 C 515.806 326.821, 511.370 335.901, 510.374 340.881 L 509.723 344.137 513.572 343.819 C 517.361 343.505, 517.456 343.396, 519.634 336.851 C 522.274 328.921, 523.606 321, 522.301 321 C 521.791 321, 520.190 322.238, 518.744 323.750 M 496.388 332.430 C 495.757 334.075, 498.496 340.337, 500.616 342.097 C 502.627 343.766, 503.455 342.526, 503.455 337.842 C 503.455 335.017, 502.879 333.385, 501.536 332.403 C 499.078 330.605, 497.085 330.616, 496.388 332.430 M 487.434 341.073 C 485.797 342.882, 484.840 343.062, 479.894 342.488 C 475.631 341.993, 473.458 342.229, 471.115 343.441 C 467.630 345.243, 467.129 346.780, 469.750 347.630 C 470.712 347.942, 474.220 349.486, 477.544 351.060 C 485.705 354.925, 487.513 358.283, 489.597 373.437 C 491.137 384.640, 491.127 385.202, 489.354 387.162 C 486.689 390.107, 483.446 391.573, 473.929 394.137 C 466.558 396.123, 463.045 396.414, 445.938 396.454 L 426.377 396.500 421.755 400.567 C 419.213 402.804, 414.141 408.341, 410.483 412.872 C 403.423 421.616, 398.632 425.627, 390.438 429.653 C 387.655 431.021, 381.709 435.415, 377.225 439.417 C 371.814 444.248, 367.217 447.405, 363.549 448.808 C 357.038 451.300, 343.503 460.191, 342.030 462.945 C 341.463 464.003, 341 467.303, 341 470.279 C 341 477.563, 343.014 479.420, 350.960 479.466 C 358.408 479.509, 360.287 477.869, 362.393 469.486 C 363.277 465.968, 364 462.619, 364 462.044 C 364 460.376, 359.771 460.842, 356.431 462.879 C 352.303 465.396, 349 466.384, 349 465.102 C 349 464.534, 350.341 462.542, 351.981 460.675 C 354.788 457.477, 360.274 455.239, 377.191 450.388 C 378.121 450.121, 380.404 447.787, 382.264 445.201 C 386.449 439.382, 394.039 435.058, 401.403 434.298 L 406.761 433.745 407.924 437.269 C 408.764 439.814, 409.978 441.125, 412.293 441.988 C 414.057 442.645, 416.457 443.556, 417.627 444.014 C 421.346 445.467, 426.590 450.764, 428.497 454.994 C 430.142 458.642, 430.179 459.250, 428.834 460.595 C 427.489 461.939, 426.928 461.618, 423.662 457.633 C 418.850 451.760, 413.956 448.782, 409.776 449.185 C 404.069 449.734, 404.970 452.664, 413.345 460.784 C 421.383 468.578, 429.217 472.974, 435.097 472.990 C 437.861 472.998, 439.527 472.191, 442.297 469.500 C 446.834 465.094, 449.436 465.027, 452.011 469.250 C 454.559 473.429, 454.525 476.214, 451.897 478.595 C 450.212 480.121, 447.905 480.570, 440.294 480.850 C 429.523 481.247, 420.927 479.042, 413.260 473.916 C 405.076 468.444, 405.411 468.473, 400.208 472.796 C 393.004 478.782, 391.496 479.362, 386.451 478.092 C 384.066 477.491, 380.739 477, 379.057 477 C 376.447 477, 376 477.373, 376 479.550 C 376 482.290, 378.286 487.411, 380.779 490.254 C 382.103 491.764, 382.144 492.781, 381.069 497.581 C 380.383 500.647, 380.096 503.430, 380.432 503.765 C 380.767 504.101, 383.016 502.438, 385.428 500.071 C 390.967 494.635, 392.405 495.278, 391.703 502.878 C 391.417 505.970, 390.887 509.427, 390.525 510.560 C 389.919 512.453, 390.467 512.714, 397.264 513.771 C 409.471 515.669, 410 516.025, 410 522.350 L 410 527.749 415.238 529.632 C 418.644 530.857, 420.602 532.170, 420.836 533.388 C 421.360 536.107, 419.299 536.967, 412.219 536.985 C 407.391 536.996, 405.795 537.371, 405.323 538.601 C 404.354 541.126, 406.365 541.680, 419.239 542.433 C 429.340 543.023, 432.086 543.549, 436.130 545.663 L 440.959 548.188 444.376 546.077 C 447.252 544.299, 451 540.107, 451 538.667 C 451 538.445, 449.138 538.014, 446.862 537.708 C 442.702 537.150, 439 534.666, 440.337 533.329 C 440.732 532.934, 443.658 533.149, 446.838 533.806 C 453.875 535.259, 456.419 535.289, 461.151 533.975 C 465.881 532.661, 466.439 530.911, 463.869 525.444 C 461.182 519.729, 460.520 519.387, 458.312 522.575 C 450.759 533.477, 448.935 530.018, 455.050 516.388 L 457.870 510.104 455.862 507.552 C 451.763 502.341, 447.346 505.338, 444.608 515.187 C 442.408 523.101, 437.422 528.415, 431.213 529.464 C 428.527 529.918, 426.440 529.780, 425.613 529.094 C 424.789 528.410, 424.039 524.356, 423.612 518.282 C 422.834 507.210, 421.018 502.992, 416.447 501.638 C 407.303 498.930, 402 496.433, 402 494.835 C 402 492.066, 405.478 491.592, 426.126 491.545 L 445.752 491.500 450.719 486.857 C 453.450 484.303, 457.106 481.479, 458.843 480.581 C 462.701 478.586, 462.893 476.101, 459.929 466.506 C 458.558 462.065, 456.591 458.400, 454.104 455.651 C 452.040 453.368, 448.665 449.256, 446.605 446.514 C 443.293 442.106, 442.028 441.259, 435.680 439.200 C 427.579 436.572, 424.561 434.231, 422.939 429.314 C 421.338 424.463, 422.895 422.887, 428.525 423.658 C 435.042 424.552, 437.423 423.512, 441.992 417.773 C 445.313 413.602, 446.046 411.978, 445.604 409.770 C 444.967 406.585, 445.447 406.453, 450.292 408.477 C 453.414 409.782, 455.677 409.778, 469.664 408.443 C 486.628 406.823, 492.140 405.741, 493.836 403.698 C 494.423 402.990, 495.038 399.188, 495.202 395.250 L 495.500 388.089 499.676 389.963 C 503.553 391.702, 503.899 392.183, 504.499 396.668 C 505.233 402.157, 506.876 407, 508.005 407 C 510.357 407, 510.702 391.631, 508.511 384.409 C 506.469 377.679, 506.583 377, 509.753 377 C 512.519 377, 524.989 373.743, 527.014 372.492 C 529.033 371.243, 526.127 369.274, 521.493 368.752 C 519.032 368.475, 514.588 367.018, 511.617 365.515 L 506.215 362.782 502.375 365.391 C 496.909 369.105, 495.631 368.860, 496.437 364.250 C 498.223 354.033, 498.178 352.093, 496.021 346.326 C 493.108 338.542, 490.930 337.209, 487.434 341.073 M 456 342.563 C 456 344.885, 458.388 346.946, 459.634 345.699 C 460.548 344.786, 459.023 341.223, 457.462 340.624 C 456.420 340.224, 456 340.780, 456 342.563 M 340 341.864 C 336.595 342.853, 336.852 345.125, 340.500 346.297 C 347.517 348.551, 348.233 351.129, 344.897 362.112 L 342.795 369.035 346.397 376.621 C 348.379 380.794, 350 385.061, 350 386.104 C 350 389.829, 347.301 387.898, 343.913 381.750 C 340.679 375.881, 340.189 375.446, 335.870 374.608 C 331.246 373.711, 326 374.359, 326 375.827 C 326 376.260, 328.027 378.044, 330.504 379.790 C 338.230 385.236, 340.770 391.190, 341.861 406.420 C 342.273 412.177, 342.943 415.486, 343.749 415.753 C 344.436 415.980, 346.647 414.329, 348.663 412.083 C 350.679 409.837, 352.643 408, 353.027 408 C 353.846 408, 357.002 423.251, 357.001 427.201 C 356.999 432.277, 359.177 440.131, 360.753 440.736 C 363.160 441.659, 366 437.383, 366 432.837 C 366 427.491, 363.175 415.334, 360.877 410.790 C 357.611 404.334, 358.821 401.822, 363.925 404.461 L 366.909 406.004 367.394 402.752 C 367.661 400.963, 368.420 395.900, 369.080 391.500 C 369.741 387.100, 370.893 381.983, 371.641 380.128 C 373.376 375.823, 373.350 375, 371.480 375 C 370.644 375, 367.956 378.097, 365.507 381.882 C 361.448 388.157, 359.498 390, 356.918 390 C 355.132 390, 356.042 386.076, 359.500 378.860 C 361.425 374.843, 363 370.821, 363 369.923 C 363 367.185, 353.864 346.646, 351.611 344.319 C 349.268 341.898, 343.837 340.749, 340 341.864 M 364.231 354.102 C 367.726 362.512, 373.558 365.200, 391 366.441 C 399.861 367.072, 406.160 366.339, 416.829 363.436 L 423.158 361.714 421.055 359.607 C 419.129 357.678, 417.497 357.452, 401.726 356.936 C 385.189 356.394, 384.072 356.224, 373.804 352.686 C 367.921 350.659, 362.883 349, 362.609 349 C 362.335 349, 363.065 351.296, 364.231 354.102 M 511.270 349.703 C 509.442 350.056, 505 354.675, 505 356.223 C 505 356.451, 512.916 356.607, 522.591 356.569 L 540.182 356.500 536.562 353.369 C 534.572 351.647, 531.549 349.960, 529.846 349.619 C 526.502 348.950, 514.895 349.003, 511.270 349.703 M 557.368 350.484 C 556.140 353.685, 557.771 355, 562.969 355 C 566.335 355, 567.995 354.586, 567.985 353.750 C 567.955 351.358, 566.474 350.300, 562.225 349.636 C 558.892 349.115, 557.821 349.302, 557.368 350.484 M 349.459 362.250 C 347.875 367.312, 347.894 367.706, 349.980 373.250 C 352.326 379.484, 353.303 380.170, 355.088 376.835 C 357.213 372.865, 354.655 357, 351.891 357 C 351.457 357, 350.363 359.363, 349.459 362.250 M 414 369.527 C 407.675 371.393, 398.788 373.229, 394.250 373.608 C 389.712 373.986, 386 374.609, 386 374.993 C 386 375.376, 386.899 376.504, 387.998 377.498 C 389.771 379.103, 391.261 379.236, 401.248 378.684 C 407.437 378.342, 415.200 377.355, 418.500 376.490 C 421.800 375.626, 426.188 374.470, 428.250 373.921 C 430.313 373.372, 432 372.344, 432 371.636 C 432 370.148, 427.823 365.968, 426.436 366.067 C 425.921 366.104, 420.325 367.661, 414 369.527 M 478.280 369.517 C 476.489 370.771, 476.192 372.028, 476.167 378.471 C 476.150 382.594, 476.582 386.242, 477.125 386.578 C 478.900 387.674, 482.940 386.022, 484.572 383.531 C 486.030 381.306, 486.032 380.621, 484.595 375.677 C 482.646 368.975, 481.144 367.510, 478.280 369.517 M 558.250 370.973 C 555.913 372.034, 554 373.120, 554 373.386 C 554 373.652, 554.704 377.161, 555.564 381.185 C 557.144 388.580, 556.848 395.273, 554.834 397.700 C 553.345 399.494, 548.240 399.326, 541.890 397.276 C 537.940 396, 535.043 394.043, 530.753 389.753 C 524.458 383.458, 523.784 383.375, 519.156 388.323 C 514.950 392.820, 517.435 395.585, 531.928 402.535 C 543.557 408.111, 543.708 410.848, 532.613 415 C 525.402 417.699, 520 422.018, 520 425.085 C 520 427.553, 524.560 427.697, 527.932 425.335 C 530.246 423.714, 530.400 423.769, 533.741 427.415 C 535.629 429.475, 537.291 431.011, 537.434 430.830 C 537.578 430.648, 538.219 427.811, 538.860 424.524 C 539.500 421.237, 540.686 417.885, 541.496 417.075 C 543.309 415.263, 549.952 415.318, 551.117 417.155 C 551.586 417.895, 551.983 422.550, 552 427.500 C 552.017 432.450, 552.461 437.175, 552.987 438 C 554.495 440.365, 557.116 438.054, 558.591 433.059 C 559.296 430.669, 561.502 427.046, 563.492 425.008 L 567.110 421.303 561.305 418.401 C 557.134 416.317, 555.500 414.937, 555.500 413.500 C 555.500 411.794, 556.267 411.456, 560.710 411.199 C 565.492 410.923, 566.251 410.522, 569.960 406.308 C 574.268 401.413, 575.341 397, 572.223 397 C 570.273 397, 566.870 399.060, 563 402.582 C 559.524 405.745, 555.463 406.649, 554.618 404.448 C 553.760 402.211, 555.462 400.277, 558.965 399.508 C 564.440 398.305, 564.799 397.194, 566.645 375.750 C 567.213 369.153, 567.172 369, 564.863 369.022 C 563.563 369.034, 560.587 369.912, 558.250 370.973 M 468.676 374.755 C 466.778 375.928, 464.892 378.786, 462.926 383.471 C 461.317 387.305, 460 390.568, 460 390.721 C 460 390.875, 461.146 391, 462.548 391 C 463.950 391, 466.092 389.925, 467.311 388.610 C 470.779 384.867, 474.539 372.989, 472.250 373.005 C 471.837 373.008, 470.229 373.796, 468.676 374.755 M 429 378.469 C 421.585 381.857, 411.336 385, 407.707 385 C 406.646 385, 406.019 385.543, 406.261 386.250 C 406.582 387.187, 410.654 387.465, 422.551 387.361 L 438.412 387.223 441.206 384.095 C 444.660 380.229, 444.902 376.475, 441.750 375.630 C 438.022 374.631, 436.809 374.901, 429 378.469 M 453.358 379.327 C 446.773 385.192, 440.945 389, 438.554 389 C 436.699 389, 436.679 389.108, 438.248 390.676 C 440.768 393.197, 449.106 393.048, 452.675 390.419 C 455.600 388.263, 462 378.570, 462 376.294 C 462 373.725, 458.119 375.087, 453.358 379.327 M 483.188 422.909 C 479.510 426.708, 475.540 430.097, 474.367 430.439 C 473.194 430.781, 466.094 430.570, 458.591 429.971 C 444.282 428.829, 441.568 429.079, 440.589 431.629 C 439.733 433.860, 442.928 440.022, 445.436 440.976 C 446.607 441.421, 449.789 443.482, 452.506 445.557 C 460.309 451.512, 468.934 455, 475.861 455 C 482.260 455, 482.953 454.299, 482.986 447.797 C 483.017 441.683, 486.266 438.444, 490.717 440.091 C 492.312 440.681, 493.036 442.060, 493.550 445.484 C 494.546 452.127, 492.028 458.014, 486.027 463.074 C 481.362 467.008, 481.159 467.413, 478.615 477.890 C 475.209 491.921, 475.239 492.655, 479.297 494.351 C 481.110 495.108, 483.875 497.252, 485.442 499.114 C 488.182 502.371, 488.572 502.504, 495.645 502.612 L 503 502.725 503 498.930 C 503 494.675, 505.383 493.064, 508.896 494.945 C 512.122 496.671, 514.850 496.158, 516.592 493.500 C 517.719 491.779, 519.139 491, 521.146 491 C 524.682 491, 525.585 489.117, 524.097 484.847 C 523.188 482.240, 523.279 481.349, 524.606 479.883 C 525.961 478.385, 527.257 478.193, 532.612 478.693 C 540.004 479.383, 540.427 478.718, 536.941 471.885 C 533.886 465.895, 534.525 464.725, 541.508 463.527 C 547.079 462.572, 547.523 462.298, 547.828 459.625 C 548.133 456.958, 547.952 456.788, 545.328 457.281 C 543.773 457.573, 540.387 458.629, 537.805 459.628 C 535.224 460.627, 532.838 461.171, 532.503 460.837 C 532.169 460.502, 533.663 457.495, 535.823 454.153 L 539.750 448.077 538.318 441.879 C 535.971 431.719, 532.447 426.870, 528.972 429.018 C 527.778 429.755, 527.907 430.629, 529.775 434.475 C 532.243 439.553, 532.769 444.531, 530.750 443.698 C 530.063 443.414, 527.813 442.460, 525.750 441.577 C 523.688 440.695, 522 440.140, 522 440.344 C 522 440.549, 523.575 443.737, 525.500 447.431 C 530.713 457.432, 530.135 461, 523.303 461 C 521.711 461, 519.605 462.255, 517.635 464.376 C 513.114 469.245, 506.104 470.732, 500.872 467.931 C 499.071 466.967, 498.836 466.146, 499.268 462.314 C 499.546 459.846, 500.197 457.403, 500.714 456.886 C 501.230 456.370, 503.981 455.671, 506.827 455.334 C 509.672 454.997, 512 454.479, 512 454.182 C 512 453.885, 511.460 452.149, 510.800 450.325 C 509.670 447.198, 509.792 446.810, 512.913 443.590 C 514.734 441.711, 516.034 439.602, 515.802 438.905 C 515.569 438.207, 512.706 436.020, 509.439 434.045 C 505.008 431.366, 502.230 428.633, 498.500 423.283 C 495.515 419.001, 492.770 416.089, 491.688 416.056 C 490.692 416.025, 486.867 419.109, 483.188 422.909 M 275.313 423.405 C 274.141 425.500, 274.802 434.935, 276.249 436.750 C 278.470 439.538, 279.250 437.922, 278.572 431.932 C 278.194 428.595, 277.532 424.908, 277.100 423.740 C 276.367 421.759, 276.247 421.737, 275.313 423.405 M 626.689 442.026 C 626.325 443.387, 626.066 445.625, 626.114 447 C 626.176 448.796, 626.461 448.392, 627.123 445.567 C 628.138 441.237, 627.749 438.062, 626.689 442.026 M 279.250 441.736 C 277.893 442.204, 277.556 449.528, 278.641 454.956 C 279.115 457.325, 279.529 457.814, 280.228 456.831 C 280.901 455.883, 281.031 456.148, 280.680 457.750 C 280.409 458.988, 280.491 460, 280.863 460 C 281.235 460, 282.600 463.938, 283.898 468.750 C 285.195 473.563, 287.549 479.564, 289.129 482.088 C 290.708 484.611, 292 487.128, 292 487.683 C 292 488.722, 295.213 492, 296.231 492 C 296.547 492, 294.797 487.438, 292.343 481.861 C 288.556 473.256, 285.113 461.720, 281.313 444.902 C 280.814 442.693, 280.018 441.471, 279.250 441.736 M 267.064 478.050 C 267.099 479.397, 268.628 484.325, 270.463 489 C 272.993 495.447, 273.978 497.055, 274.541 495.659 C 274.987 494.553, 274.596 492.375, 273.561 490.205 C 272.613 488.218, 271.155 484.546, 270.321 482.046 C 268.469 476.495, 266.976 474.663, 267.064 478.050 M 628.615 490.465 C 627.727 491.820, 627 493.845, 627 494.965 C 627 496.084, 626.605 497, 626.121 497 C 625.638 497, 624.690 498.462, 624.014 500.250 C 621.846 505.986, 617.787 513.428, 615.425 516 C 614.162 517.375, 612.248 520.525, 611.171 523 C 610.094 525.475, 607.590 529.244, 605.606 531.376 C 600.813 536.527, 600.977 537.912, 605.824 533.210 C 614.088 525.192, 621.278 514.324, 626.875 501.392 C 631.624 490.417, 632.401 488, 631.182 488 C 630.659 488, 629.503 489.109, 628.615 490.465 M 275.238 497.666 C 274.328 498.033, 274.871 499.854, 277.186 504.198 C 279.733 508.977, 280.531 509.837, 281.050 508.360 C 281.756 506.352, 278.450 499, 276.840 499 C 276.313 499, 276.160 498.550, 276.500 498 C 277.169 496.918, 277.124 496.906, 275.238 497.666 M 598.459 504.750 C 597.485 506.262, 592.644 511.644, 587.701 516.709 C 581.204 523.365, 576.328 527.291, 570.106 530.876 C 560.265 536.546, 545.715 543.116, 535.500 546.502 C 509.419 555.147, 479.783 568.398, 471.856 574.957 L 469.500 576.907 472 576.203 C 473.375 575.817, 479 572.968, 484.500 569.873 C 490 566.777, 496.975 563.307, 500 562.160 C 503.025 561.013, 510.675 557.985, 517 555.431 C 523.325 552.877, 532.495 549.467, 537.378 547.853 C 558.938 540.725, 576.117 531.298, 587.339 520.434 C 591.552 516.355, 595 512.338, 595 511.509 C 595 510.679, 595.420 510, 595.933 510 C 596.446 510, 597.135 509.149, 597.466 508.108 C 597.796 507.067, 598.951 505.984, 600.033 505.702 C 601.115 505.419, 602 504.470, 602 503.594 C 602 501.172, 600.434 501.684, 598.459 504.750 M 312.831 516.752 C 315.148 520.017, 318.917 523.179, 324.500 526.543 C 327.312 528.237, 318.679 519.894, 313.074 515.500 L 310.523 513.500 312.831 516.752 M 287.451 520.080 C 287.073 520.691, 287.492 521.920, 288.382 522.810 C 289.873 524.301, 290 524.259, 290 522.273 C 290 519.780, 288.457 518.452, 287.451 520.080 M 292 526.596 C 292 527.691, 303.064 539.812, 305.550 541.441 C 309.699 544.160, 308.298 541.834, 300.916 533.750 C 294.607 526.842, 292 524.750, 292 526.596 M 331 531.032 C 334.528 534.270, 351.088 542.676, 358.500 544.991 C 360.700 545.678, 368.575 548.717, 376 551.745 C 383.425 554.772, 394.412 559.230, 400.415 561.651 C 417.174 568.410, 433.500 578.515, 440.887 586.700 C 447.719 594.269, 449.167 593.983, 443.030 586.276 C 436.517 578.095, 421.286 567.818, 406.500 561.625 C 398.059 558.090, 368.007 546.411, 365 545.498 C 356.963 543.055, 335.107 533.490, 331.615 530.887 L 327.500 527.819 331 531.032 M 316 548.499 C 316 550.105, 344.817 565.324, 346.808 564.768 C 347.188 564.662, 348.596 565.181, 349.935 565.922 C 351.274 566.662, 355.549 568.282, 359.435 569.521 C 363.321 570.761, 370.775 573.429, 376 575.452 C 381.225 577.474, 389.100 580.508, 393.500 582.193 C 402.920 585.802, 413.096 590.511, 418 593.530 C 419.925 594.716, 422.125 595.473, 422.889 595.213 C 423.702 594.937, 424.002 595.188, 423.611 595.820 C 423.244 596.414, 423.829 597.373, 424.911 597.953 C 426.328 598.711, 427.079 598.681, 427.594 597.848 C 428.038 597.130, 427.871 596.962, 427.155 597.405 C 426.520 597.797, 426 597.655, 426 597.090 C 426 595.588, 416.338 589.652, 404.675 583.987 C 395.365 579.465, 390.372 577.570, 366.500 569.503 C 351.799 564.534, 342.594 560.730, 330.500 554.623 C 319.580 549.108, 316 547.596, 316 548.499 M 573.500 554.053 C 570.750 555.677, 566.179 557.883, 563.343 558.954 C 560.507 560.026, 556.232 561.784, 553.843 562.862 C 551.454 563.940, 547.212 565.548, 544.417 566.436 C 541.333 567.415, 539.333 568.630, 539.333 569.525 C 539.333 570.336, 539.416 571, 539.517 571 C 540.024 571, 546.755 568.724, 548.500 567.962 C 549.600 567.482, 553.425 565.903, 557 564.454 C 566.267 560.696, 580.959 552.742, 580.375 551.798 C 579.639 550.607, 578.958 550.830, 573.500 554.053 M 523 573.921 C 506.858 579.683, 480 591.935, 480 593.536 C 480 594.634, 484.828 593.004, 491 589.824 C 500.950 584.697, 505.881 582.758, 528.250 575.172 C 532.513 573.726, 536 572.008, 536 571.355 C 536 570.701, 536.563 569.940, 537.250 569.662 C 537.938 569.385, 538.050 569.145, 537.500 569.130 C 536.950 569.114, 530.425 571.270, 523 573.921 M 474.877 596.807 C 465.210 603.358, 458.668 610.930, 455.675 619.033 C 452.993 626.294, 453.741 628.061, 456.878 621.875 C 461.691 612.386, 465.747 607.309, 472.513 602.302 C 476.081 599.661, 479 597.189, 479 596.809 C 479 595.223, 477.215 595.222, 474.877 596.807 M 431 602.116 C 431 602.730, 433.438 605.866, 436.419 609.086 C 439.399 612.305, 442.857 616.752, 444.103 618.969 C 446.839 623.838, 448.175 624.162, 447.321 619.750 C 446.519 615.606, 442.309 609.416, 437.082 604.693 C 432.916 600.930, 431 600.118, 431 602.116 M 304.607 671.582 C 304.273 672.452, 304 681.847, 304 692.459 C 304 713.812, 304.169 714.396, 310.185 713.818 L 313.500 713.500 313.770 692.372 L 314.039 671.243 311.770 670.635 C 307.870 669.591, 305.238 669.939, 304.607 671.582 M 322.667 670.667 C 322.300 671.033, 322 680.700, 322 692.148 L 322 712.962 324.398 713.564 C 325.717 713.895, 327.855 714.016, 329.148 713.833 C 331.449 713.507, 331.511 713.218, 332 700.537 C 332.493 687.761, 332.525 687.612, 334.250 690.251 C 335.212 691.724, 336 693.308, 336 693.771 C 336 694.233, 337.161 696.161, 338.580 698.056 C 339.999 699.950, 342.470 704.066, 344.071 707.203 C 346.558 712.076, 347.479 712.999, 350.404 713.548 C 352.286 713.901, 354.774 713.889, 355.933 713.521 C 357.999 712.866, 358.034 712.447, 357.770 691.676 L 357.500 670.500 353.314 670.196 C 347.680 669.786, 347.030 671.284, 347.466 683.665 C 347.660 689.170, 347.483 694.218, 347.073 694.882 C 346.597 695.652, 345.182 693.991, 343.167 690.295 C 335.176 675.640, 333.094 672.417, 330.877 671.265 C 328.301 669.926, 323.739 669.594, 322.667 670.667 M 371.500 671.011 C 367.589 672.249, 364 677.620, 364 682.235 C 364 687.604, 367.469 691.004, 376.939 694.913 C 387.356 699.214, 389.609 703.035, 383.398 705.865 C 379.465 707.656, 378.180 707.265, 374 703 C 370.888 699.825, 369.349 699, 366.540 699 C 363.532 699, 363.002 699.338, 363.014 701.250 C 363.042 705.901, 364.370 708.133, 368.578 710.598 C 376.582 715.289, 387.164 714.876, 393.250 709.635 C 395.625 707.590, 396 706.523, 396 701.808 C 396 695.004, 394.359 693.260, 383.973 689.020 C 375.409 685.523, 372.482 682.836, 374.050 679.907 C 375.714 676.797, 381.879 677.335, 385.227 680.883 C 388.081 683.906, 392.814 685.243, 395.448 683.769 C 397.863 682.418, 397.336 680.827, 392.742 675.606 C 388.509 670.795, 388.444 670.766, 381.492 670.414 C 377.646 670.220, 373.150 670.488, 371.500 671.011 M 398.428 671.328 C 398.148 672.058, 398.376 673.858, 398.934 675.328 C 399.850 677.735, 400.449 678, 404.975 678 L 410 678 410 695.481 L 410 712.962 412.398 713.564 C 413.717 713.895, 415.855 714.016, 417.148 713.833 C 419.489 713.502, 419.502 713.421, 420 696.500 C 420.275 687.150, 420.830 678.992, 421.234 678.371 C 421.683 677.681, 423.671 677.434, 426.347 677.736 C 430.445 678.198, 430.769 678.055, 431.406 675.519 C 432.675 670.462, 431.246 670, 414.346 670 C 402.461 670, 398.821 670.304, 398.428 671.328 M 436.450 671.082 C 436.046 671.735, 435.674 681.546, 435.624 692.885 L 435.533 713.500 440.517 713.500 L 445.500 713.500 445.500 692 L 445.500 670.500 441.342 670.197 C 438.900 670.019, 436.880 670.384, 436.450 671.082 M 451.250 670.662 C 450.563 670.940, 450 672.704, 450 674.583 L 450 678 455.500 678 L 461 678 461 693.566 C 461 702.133, 460.546 709.980, 459.990 711.019 C 459.113 712.658, 459.424 712.989, 462.359 713.540 C 464.217 713.888, 466.809 714.022, 468.119 713.837 L 470.500 713.500 470.773 695.801 L 471.046 678.103 476.236 677.801 C 481.158 677.516, 481.460 677.338, 482.060 674.380 L 482.694 671.261 476.097 670.637 C 468.426 669.913, 453.069 669.928, 451.250 670.662 M 485.796 670.750 C 485.618 671.163, 485.704 679.234, 485.987 688.687 L 486.500 705.874 489.443 708.943 C 492.792 712.436, 497.353 713.986, 504.300 713.994 C 509.855 714.001, 513.294 712.446, 517.500 708.026 L 520.500 704.874 520.817 688.437 C 521.066 675.555, 521.423 672, 522.469 672 C 523.204 672, 524.275 673.350, 524.850 675 C 525.806 677.741, 526.289 678, 530.448 678 L 535 678 535.192 691.250 C 535.298 698.538, 535.332 705.625, 535.268 707 C 535.024 712.258, 535.897 714.001, 538.769 713.986 C 540.271 713.979, 542.513 713.701, 543.750 713.370 C 545.974 712.774, 546 712.563, 546 695.433 L 546 678.100 551.750 677.800 C 556.887 677.532, 557.535 677.254, 557.827 675.195 C 558.471 670.647, 557.093 670.275, 540.750 670.584 C 532.363 670.742, 525.050 670.956, 524.500 671.058 C 523.950 671.161, 520.688 670.907, 517.250 670.493 L 511 669.742 510.985 685.121 C 510.967 704.189, 510.485 705.500, 503.500 705.500 C 496.598 705.500, 496.033 704.063, 496.015 686.450 C 496.005 676.873, 495.618 672.018, 494.800 671.200 C 493.493 669.893, 486.318 669.535, 485.796 670.750 M 570.313 671.041 C 560.003 674.224, 555.299 695.298, 562.477 706.145 C 568.552 715.325, 583.101 716.672, 590.733 708.760 C 595.095 704.238, 596.212 700.721, 596.126 691.781 C 596.041 682.827, 594.581 678.777, 589.800 674.229 C 586.815 671.389, 585.515 670.899, 579.931 670.508 C 576.394 670.259, 572.066 670.499, 570.313 671.041 M 572.189 680.039 C 570.254 681.841, 570 683.110, 570 690.974 C 570 701.753, 570.890 704.417, 574.966 705.838 C 582.089 708.321, 586.002 703.341, 585.996 691.800 C 585.991 681.983, 583.742 678, 578.203 678 C 575.735 678, 573.600 678.724, 572.189 680.039 M 330.357 736.058 C 328.660 736.690, 327.150 740.049, 323.107 752.179 C 320.298 760.607, 318 768.303, 318 769.282 C 318 773.393, 325.305 771.905, 326.392 767.573 C 326.975 765.250, 327.511 765, 331.900 765 C 336.282 765, 337.026 765.346, 339.432 768.500 C 342.384 772.370, 346.988 773.433, 347.015 770.250 C 347.031 768.337, 342.081 751.974, 338.655 742.613 C 336.376 736.389, 334.163 734.641, 330.357 736.058 M 569.418 736.606 C 567.155 737.409, 564.311 739.440, 563.038 741.163 C 561.054 743.846, 560.748 745.419, 560.802 752.665 C 560.901 766.013, 564.828 771.401, 574.500 771.455 C 580.647 771.489, 584.509 769.415, 586.493 765.015 C 588.550 760.454, 587.925 759, 583.907 759 C 581.568 759, 580.492 759.747, 578.867 762.500 C 576.614 766.319, 575.953 766.571, 572.684 764.850 C 569.362 763.102, 569.032 762.112, 569.015 753.861 C 569.003 747.930, 569.410 745.716, 570.831 743.960 C 573.163 741.080, 577.548 741.914, 579.205 745.552 C 581.120 749.754, 588 750.189, 588 746.108 C 588 743.365, 583.215 737.988, 579.329 736.364 C 575.408 734.726, 574.667 734.744, 569.418 736.606 M 601.234 736.750 C 600.065 737.779, 597.553 743.857, 595.136 751.500 C 589.619 768.951, 589.330 770.592, 591.669 771.203 C 594.592 771.968, 597.295 770.577, 599.043 767.410 C 600.989 763.882, 606.921 762.786, 609.159 765.540 C 612.975 770.236, 615.103 772, 616.955 772 C 619.607 772, 619.550 770.656, 616.451 760.145 C 611.341 742.811, 609.053 737.345, 606.401 736.137 C 603.276 734.713, 603.590 734.676, 601.234 736.750 M 215.667 736.667 C 215.300 737.033, 215 744.860, 215 754.058 L 215 770.783 217.421 771.391 C 220.558 772.178, 222.981 771.215, 223.073 769.143 C 223.113 768.239, 223.225 765.250, 223.323 762.500 L 223.500 757.500 228.390 757.190 C 231.079 757.019, 233.722 757.322, 234.264 757.864 C 234.805 758.405, 235.530 761.422, 235.874 764.569 C 236.572 770.950, 238.639 773.348, 241.750 771.386 C 243.304 770.406, 243.500 768.391, 243.500 753.391 L 243.500 736.500 239.835 736.195 C 235.335 735.820, 234.478 737.668, 235.470 745.608 L 236.144 751 229.445 751 L 222.746 751 223.251 745.750 C 223.934 738.664, 222.825 736, 219.191 736 C 217.619 736, 216.033 736.300, 215.667 736.667 M 250.667 736.667 C 250.300 737.033, 250 744.860, 250 754.060 C 250 772.229, 250.249 772.996, 255.509 770.997 L 258 770.050 258 754.607 C 258 746.113, 257.727 738.452, 257.393 737.582 C 256.790 736.010, 251.978 735.356, 250.667 736.667 M 267.277 737.973 C 263.778 740.106, 262.673 742.839, 263.176 748.112 C 263.463 751.110, 264.134 751.815, 269 754.232 C 272.025 755.735, 275.743 757.401, 277.263 757.935 C 280.485 759.066, 281.708 761.442, 280.079 763.405 C 277.790 766.163, 275.129 765.879, 270.767 762.412 C 265.702 758.385, 263.266 758.091, 262.434 761.407 C 261.048 766.931, 266.831 771, 276.067 771 C 285.850 771, 290.216 766.815, 288.515 759.069 C 287.699 755.353, 286.908 754.728, 278.449 751.125 C 271.429 748.135, 269.786 746.167, 272.040 743.452 C 273.979 741.115, 277.162 741.765, 280.733 745.226 C 283.428 747.838, 284.388 748.245, 285.780 747.367 C 286.751 746.755, 287.500 745.040, 287.500 743.431 C 287.500 736.945, 274.650 733.477, 267.277 737.973 M 293.667 736.667 C 293.300 737.033, 293 744.860, 293 754.060 C 293 772.199, 293.176 772.747, 298.579 771.391 C 300.798 770.834, 301 770.290, 301 764.892 L 301 759 306.423 759 C 312.985 759, 317.339 755.937, 319.092 750.089 C 321.586 741.762, 314.424 736.062, 301.417 736.022 C 297.521 736.010, 294.033 736.300, 293.667 736.667 M 350.397 737.408 C 349.665 739.315, 350.337 769.677, 351.128 770.465 C 351.474 770.809, 353.049 771.182, 354.628 771.295 L 357.500 771.500 357.785 760.662 L 358.069 749.823 360.557 753.489 C 361.925 755.505, 364.211 759.482, 365.636 762.327 C 369.363 769.765, 370.718 771, 375.155 771 L 379 771 379 755.082 C 379 746.327, 378.727 738.452, 378.393 737.582 C 378.006 736.574, 376.567 736, 374.427 736 L 371.068 736 370.784 746.750 L 370.500 757.500 364.108 746.750 C 357.987 736.454, 357.574 736, 354.327 736 C 352.335 736, 350.714 736.580, 350.397 737.408 M 391.374 737.228 C 390.204 737.927, 388.067 739.915, 386.624 741.644 C 384.196 744.554, 384 745.499, 384 754.317 C 384 763.571, 384.087 763.933, 386.999 766.845 C 392.910 772.756, 401.078 773.330, 407.107 768.257 C 411.245 764.774, 413 760.361, 413 753.433 C 413 742.961, 407.923 736.923, 398.592 736.297 C 395.642 736.099, 392.605 736.491, 391.374 737.228 M 425.258 737.250 C 424.715 737.938, 422.796 743.450, 420.994 749.500 C 419.192 755.550, 416.907 762.588, 415.916 765.141 C 413.916 770.295, 414.160 771.007, 417.917 770.985 C 421.178 770.965, 422.858 769.902, 424.398 766.885 C 425.447 764.831, 426.231 764.540, 430.058 764.792 C 432.501 764.953, 434.642 765.493, 434.817 765.992 C 435.683 768.477, 439.370 772, 441.104 772 C 445.232 772, 444.712 768.997, 436.250 744 C 435.412 741.525, 434.043 738.712, 433.208 737.750 C 431.450 735.723, 426.699 735.424, 425.258 737.250 M 447.667 736.667 C 447.300 737.033, 447 744.860, 447 754.058 L 447 770.783 449.596 771.435 C 454.127 772.572, 454.998 770.753, 455.015 760.128 C 455.033 749.099, 455.647 749.319, 459.537 761.747 C 462.079 769.868, 464.282 772.680, 466.855 771.089 C 467.542 770.665, 469.798 765.503, 471.869 759.617 L 475.635 748.915 475.741 759.013 C 475.850 769.409, 476.700 772, 480 772 C 483.621 772, 484.060 769.776, 483.775 752.867 L 483.500 736.500 478.912 736.202 C 476.039 736.015, 473.927 736.389, 473.261 737.202 C 472.675 737.916, 470.750 743.167, 468.983 748.872 C 466.752 756.072, 465.496 758.824, 464.876 757.872 C 464.385 757.117, 462.811 752.675, 461.379 748 C 459.947 743.325, 458.081 738.712, 457.233 737.750 C 455.711 736.023, 449.063 735.271, 447.667 736.667 M 489.667 736.667 C 489.300 737.033, 489 744.923, 489 754.199 L 489 771.066 500.250 770.783 L 511.500 770.500 511.500 768 C 511.500 765.621, 511.164 765.476, 504.536 765 L 497.573 764.500 496.863 761.007 C 496.473 759.086, 496.344 757.322, 496.578 757.089 C 496.811 756.855, 499.467 756.460, 502.480 756.210 C 512.473 755.381, 512.384 750, 502.378 750 L 497 750 497 746.544 L 497 743.088 504.250 742.794 C 511.032 742.519, 511.522 742.346, 511.837 740.113 C 512.023 738.800, 511.573 737.345, 510.837 736.878 C 509.262 735.880, 490.640 735.694, 489.667 736.667 M 516.667 736.667 C 516.300 737.033, 516 744.593, 516 753.467 C 516 770.026, 516.434 772, 520.078 772 C 522.829 772, 524.206 769.353, 524.357 763.768 C 524.492 758.777, 524.648 758.483, 527.310 758.178 C 531.030 757.751, 532.997 759.543, 533.014 763.372 C 533.042 769.955, 533.825 771, 538.724 771 C 542.601 771, 543.118 770.761, 542.513 769.250 C 542.127 768.288, 541.478 765.129, 541.071 762.231 C 540.609 758.950, 539.644 756.460, 538.513 755.633 C 536.773 754.361, 536.787 754.213, 538.848 752.152 C 541.140 749.860, 541.619 745.758, 540.069 741.683 C 539.426 739.991, 537.673 738.736, 534.391 737.618 C 529.685 736.014, 517.949 735.384, 516.667 736.667 M 547.714 736.619 C 547.321 737.012, 547 744.860, 547 754.058 L 547 770.783 549.596 771.435 C 554.669 772.708, 555.073 771.278, 554.774 753.108 L 554.500 736.500 551.464 736.203 C 549.794 736.039, 548.107 736.227, 547.714 736.619 M 622.714 736.619 C 621.771 737.563, 621.818 768.168, 622.765 769.647 C 623.468 770.744, 626.009 771.361, 628.814 771.115 C 629.831 771.026, 630.058 768.624, 629.814 760.498 C 629.641 754.722, 629.725 749.998, 630 750.001 C 630.275 750.004, 632.718 753.943, 635.429 758.753 C 641.988 770.394, 642.568 771, 647.155 771 L 651 771 651 755.082 C 651 746.327, 650.727 738.452, 650.393 737.582 C 650.005 736.569, 648.565 736, 646.393 736 L 643 736 642.988 746.750 L 642.976 757.500 639.852 752.500 C 630.794 738.005, 629.564 736.508, 626.455 736.203 C 624.790 736.039, 623.107 736.227, 622.714 736.619 M 660.681 739.940 C 655.341 744.862, 654.388 748.469, 655.917 757.965 C 657.142 765.575, 660.086 769.204, 666.484 770.995 C 671.919 772.517, 676.613 771.027, 681.161 766.334 C 684.061 763.342, 684.360 762.413, 684.725 755.284 C 685.358 742.900, 681.063 737.084, 670.644 736.220 C 665.399 735.785, 665.044 735.918, 660.681 739.940 M 302.177 742.891 C 300.087 744.183, 301.039 752.395, 303.329 752.830 C 306.119 753.360, 310.856 751.029, 311.571 748.775 C 312.693 745.243, 305.580 740.788, 302.177 742.891 M 394.174 744.314 C 391.098 747.589, 390.982 759.982, 394 763 C 396.529 765.529, 400.181 765.563, 402.430 763.078 C 405.959 759.177, 405.667 747.667, 401.944 743.944 C 399.368 741.368, 396.828 741.489, 394.174 744.314 M 666.223 743.557 C 664.252 744.937, 664 745.989, 664 752.834 C 664 761.932, 665.522 765, 670.034 765 C 674.952 765, 678.081 757.575, 676.566 749.500 C 675.340 742.963, 670.797 740.353, 666.223 743.557 M 524.667 743.667 C 523.467 744.866, 523.968 750.774, 525.313 751.290 C 526.036 751.567, 527.798 751.570, 529.230 751.296 C 532.211 750.726, 533.797 746.665, 531.921 744.404 C 530.726 742.965, 525.863 742.471, 524.667 743.667 M 602.992 751.522 C 601.390 755.733, 602.094 758.443, 604.892 758.838 C 607.185 759.162, 607.255 758.997, 606.591 754.838 C 605.680 749.138, 604.360 747.922, 602.992 751.522 M 330.972 752.052 C 329.501 754.801, 330.117 758.407, 332.124 758.789 C 334.199 759.184, 335.111 756.805, 334.348 752.989 C 333.649 749.495, 332.510 749.179, 330.972 752.052 M 427.975 752.565 C 426.746 755.797, 426.718 759, 427.918 759 C 431.531 759, 433.020 755.821, 431.393 751.582 C 430.497 749.248, 429.082 749.655, 427.975 752.565 M 347.959 791.750 C 347.937 792.163, 347.872 798.534, 347.815 805.908 C 347.724 817.689, 347.928 819.474, 349.494 820.619 C 350.734 821.526, 351.831 821.626, 353.098 820.948 C 354.593 820.148, 354.972 818.495, 355.210 811.736 L 355.500 803.500 357.150 808 C 358.058 810.475, 359.313 814.413, 359.940 816.750 C 361.894 824.035, 366.932 821.728, 368.975 812.613 C 369.573 809.943, 370.746 806.576, 371.582 805.129 C 372.995 802.683, 373.060 803.148, 372.510 811.813 L 371.919 821.126 375.709 820.813 L 379.500 820.500 379.500 806.123 C 379.500 790.199, 379.431 790.040, 373.174 791.601 C 369.697 792.468, 369.487 792.784, 367.300 800.434 C 366.052 804.798, 364.589 808.811, 364.048 809.352 C 362.926 810.474, 362.854 810.310, 360.404 801 C 358.230 792.738, 356.742 791, 351.845 791 C 349.730 791, 347.982 791.337, 347.959 791.750 M 384.438 792.300 C 384.164 793.016, 384.065 799.653, 384.220 807.050 L 384.500 820.500 394.267 820.786 C 402.344 821.023, 404.138 820.805, 404.629 819.524 C 405.691 816.758, 403.085 815.108, 397.167 814.797 C 391.837 814.518, 391.481 814.339, 391.188 811.793 C 390.893 809.237, 391.160 809.048, 395.938 808.414 C 398.722 808.045, 401.067 807.350, 401.150 806.871 C 401.669 803.858, 401.203 803.470, 396.500 803 C 391.934 802.543, 391.473 802.261, 391.184 799.750 L 390.867 797 397.434 797 C 402.435 797, 404 796.662, 404 795.582 C 404 794.802, 404.273 793.452, 404.607 792.582 C 405.136 791.204, 403.910 791, 395.076 791 C 387.678 791, 384.802 791.352, 384.438 792.300 M 406.787 794 C 406.499 795.959, 406.777 797, 407.588 797 C 408.270 797, 410 799.094, 411.430 801.654 C 413.688 805.693, 413.846 806.519, 412.630 807.904 C 410.834 809.951, 407 817.974, 407 819.688 C 407 820.484, 408.201 821, 410.056 821 C 412.717 821, 413.370 820.418, 415.103 816.500 C 417.351 811.417, 418.626 810.885, 419.985 814.460 C 421.460 818.341, 424.719 821, 428 821 C 431.615 821, 431.666 820.611, 428.643 816.054 C 427.346 814.099, 425.397 810.925, 424.311 809 L 422.337 805.500 426.243 799.275 C 430.324 792.770, 430.403 791, 426.615 791 C 424.076 791, 420.583 794.337, 419.548 797.750 C 418.712 800.505, 417.343 800.656, 416.526 798.082 C 415.410 794.565, 411.894 791, 409.541 791 C 407.734 791, 407.130 791.658, 406.787 794 M 434 805.937 L 434 821 436.378 821 C 437.685 821, 439.203 820.438, 439.751 819.750 C 440.315 819.041, 440.693 812.657, 440.623 805 L 440.500 791.500 437.250 791.187 L 434 790.873 434 805.937 M 450.206 791.993 C 446.888 793.403, 445 798.871, 445 807.068 C 445 813.846, 445.169 814.369, 448.400 817.600 C 451.411 820.611, 452.407 821, 457.095 821 C 461.479 821, 462.873 820.538, 465.195 818.313 C 468.311 815.328, 468.879 811.551, 466.359 810.584 C 463.851 809.622, 461.424 810.773, 460.173 813.519 C 458.830 816.468, 455.970 816.730, 453.609 814.120 C 452.263 812.633, 451.969 810.699, 452.204 804.870 C 452.497 797.582, 452.532 797.496, 455.364 797.173 C 457.400 796.940, 459.035 797.617, 461.016 799.515 C 464.373 802.731, 467.383 802.484, 467.795 798.958 C 468.269 794.911, 464.078 791.731, 457.758 791.342 C 454.866 791.164, 451.468 791.457, 450.206 791.993 M 479.061 792.939 C 477.927 794.073, 477 795.598, 477 796.329 C 477 797.059, 475.430 802.554, 473.510 808.539 C 471.396 815.132, 470.382 819.782, 470.937 820.337 C 472.493 821.893, 476.595 820.184, 477.834 817.464 C 478.835 815.268, 479.559 814.927, 482.655 815.190 C 485.045 815.393, 486.676 816.188, 487.399 817.500 C 488.879 820.188, 490.074 820.966, 492.750 820.985 C 495.442 821.003, 495.492 820.325, 493.332 813.088 C 487.479 793.485, 486.622 791.514, 483.811 791.189 C 482.110 790.993, 480.364 791.636, 479.061 792.939 M 498.713 791.621 C 498.321 792.013, 498 798.812, 498 806.730 L 498 821.127 501.250 820.813 L 504.500 820.500 504.317 812.750 C 504.216 808.487, 504.509 805, 504.967 805 C 505.425 805, 508.104 808.629, 510.920 813.064 C 515.493 820.267, 516.332 821.095, 518.770 820.814 L 521.500 820.500 521.500 806 L 521.500 791.500 518.500 791.500 L 515.500 791.500 515 799.813 L 514.500 808.127 509.480 799.813 C 505.566 793.332, 503.905 791.435, 501.943 791.204 C 500.558 791.041, 499.104 791.229, 498.713 791.621 M 529.973 794.528 C 526.663 797.943, 526.553 798.312, 526.527 806.103 C 526.500 814.133, 526.508 814.159, 530.235 817.576 C 533.364 820.444, 534.722 821, 538.603 821 C 542.651 821, 543.725 820.510, 547.118 817.118 C 550.851 813.384, 551 812.980, 551 806.568 C 551 795.684, 547.012 791, 537.746 791 C 534.077 791, 532.855 791.555, 529.973 794.528 M 534.035 798.934 C 533.466 799.998, 533 803.178, 533 806 C 533 813.006, 534.232 815, 538.560 815 C 541.386 815, 542.235 814.512, 543.025 812.435 C 544.388 808.848, 544.243 799.643, 542.800 798.200 C 540.846 796.246, 535.222 796.717, 534.035 798.934 M 481.458 803.248 C 480.320 806.215, 481.405 810.465, 483.397 810.843 C 485.070 811.161, 485.222 810.758, 484.684 807.438 C 483.961 802.986, 482.358 800.904, 481.458 803.248" stroke="none" fill="#080d45" fill-rule="evenodd"/></svg>