<?xml version="1.0" standalone="no"?>
<!DOCTYPE svg PUBLIC "-//W3C//DTD SVG 20010904//EN"
 "http://www.w3.org/TR/2001/REC-SVG-20010904/DTD/svg10.dtd">
<svg version="1.0" xmlns="http://www.w3.org/2000/svg"
 width="425.000000pt" height="422.000000pt" viewBox="0 0 425.000000 422.000000"
 preserveAspectRatio="xMidYMid meet">

<g transform="translate(0.000000,422.000000) scale(0.100000,-0.100000)"
fill="#000000" stroke="none">
<path d="M57 4193 c-4 -3 -7 -267 -7 -585 l0 -578 585 0 585 0 0 585 0 585
-578 0 c-318 0 -582 -3 -585 -7z m1003 -583 l0 -420 -420 0 -420 0 0 420 0
420 420 0 420 0 0 -420z"/>
<path d="M390 3610 l0 -250 250 0 250 0 0 250 0 250 -250 0 -250 0 0 -250z"/>
<path d="M1390 4115 l0 -85 85 0 85 0 0 -85 0 -85 -85 0 -85 0 0 -250 0 -250
85 0 85 0 0 85 0 85 165 0 165 0 0 -85 0 -85 -85 0 -85 0 0 -415 0 -415 -335
0 -335 0 0 80 0 80 85 0 85 0 0 85 0 85 -85 0 -85 0 0 -85 0 -85 -165 0 -165
0 0 85 0 85 -335 0 -335 0 0 -85 0 -85 85 0 85 0 0 -165 0 -165 -85 0 -85 0 0
-165 0 -165 85 0 85 0 0 -170 0 -170 -85 0 -85 0 0 -80 0 -80 85 0 85 0 0 80
0 80 335 0 335 0 0 -80 0 -80 -170 0 -170 0 0 -85 0 -85 420 0 420 0 0 -85 0
-85 85 0 85 0 0 -165 0 -165 80 0 80 0 0 80 0 80 170 0 170 0 0 -165 0 -165
-335 0 -335 0 0 -335 0 -335 85 0 85 0 0 85 0 85 80 0 80 0 0 85 0 85 -80 0
-80 0 0 80 0 80 250 0 250 0 0 85 0 85 165 0 165 0 0 -85 0 -85 -85 0 -85 0 0
-80 0 -80 85 0 85 0 0 -85 0 -85 165 0 165 0 0 85 0 85 -165 0 -165 0 0 80 0
80 335 0 335 0 0 -80 0 -80 -85 0 -85 0 0 -170 0 -170 85 0 85 0 0 170 0 170
85 0 85 0 0 165 0 165 80 0 80 0 0 -85 0 -85 85 0 85 0 0 -80 0 -80 -85 0 -85
0 0 -85 0 -85 85 0 85 0 0 85 0 85 85 0 85 0 0 -170 0 -170 250 0 250 0 0 170
0 170 -85 0 -85 0 0 80 0 80 85 0 85 0 0 335 0 335 -170 0 -170 0 0 85 0 85
85 0 85 0 0 85 0 85 85 0 85 0 0 665 0 665 -85 0 -85 0 0 -165 0 -165 -250 0
-250 0 0 80 0 80 165 0 165 0 0 85 0 85 -250 0 -250 0 0 -85 0 -85 -80 0 -80
0 0 -80 0 -80 165 0 165 0 0 -170 0 -170 -85 0 -85 0 0 85 0 85 -250 0 -250 0
0 -85 0 -85 -85 0 -85 0 0 85 0 85 -80 0 -80 0 0 -165 0 -165 -85 0 -85 0 0
250 0 250 165 0 165 0 0 80 0 80 -80 0 -80 0 0 85 0 85 165 0 165 0 0 -165 0
-165 85 0 85 0 0 165 0 165 -85 0 -85 0 0 170 0 170 -85 0 -85 0 0 -85 0 -85
-80 0 -80 0 0 165 0 165 -85 0 -85 0 0 -165 0 -165 -85 0 -85 0 0 85 0 85 -80
0 -80 0 0 -255 0 -255 80 0 80 0 0 85 0 85 85 0 85 0 0 -165 0 -165 -85 0 -85
0 0 -85 0 -85 -165 0 -165 0 0 500 0 500 165 0 165 0 0 85 0 85 250 0 250 0 0
-85 0 -85 85 0 85 0 0 85 0 85 -85 0 -85 0 0 85 0 85 85 0 85 0 0 80 0 80 -85
0 -85 0 0 85 0 85 85 0 85 0 0 85 0 85 -85 0 -85 0 0 -85 0 -85 -80 0 -80 0 0
-165 0 -165 -85 0 -85 0 0 165 0 165 -85 0 -85 0 0 85 0 85 -80 0 -80 0 0 -85
0 -85 -250 0 -250 0 0 85 0 85 -85 0 -85 0 0 -85z m830 -335 l0 -250 -165 0
-165 0 0 165 0 165 85 0 85 0 0 85 0 85 80 0 80 0 0 -250z m-1500 -1170 l0
-80 165 0 165 0 0 -85 0 -85 85 0 85 0 0 -85 0 -85 85 0 85 0 0 -165 0 -165
85 0 85 0 0 85 0 85 165 0 165 0 0 80 0 80 165 0 165 0 0 -80 0 -80 85 0 85 0
0 -85 0 -85 165 0 165 0 0 85 0 85 170 0 170 0 0 -85 0 -85 85 0 85 0 0 -85 0
-85 250 0 250 0 0 250 0 250 80 0 80 0 0 85 0 85 85 0 85 0 0 -85 0 -85 -85 0
-85 0 0 -80 0 -80 85 0 85 0 0 -170 0 -170 -85 0 -85 0 0 -165 0 -165 -165 0
-165 0 0 85 0 85 -250 0 -250 0 0 165 0 165 -85 0 -85 0 0 -85 0 -85 -85 0
-85 0 0 -335 0 -335 -80 0 -80 0 0 85 0 85 -85 0 -85 0 0 250 0 250 -85 0 -85
0 0 -250 0 -250 -165 0 -165 0 0 85 0 85 -250 0 -250 0 0 85 0 85 -170 0 -170
0 0 80 0 80 -80 0 -80 0 0 250 0 250 80 0 80 0 0 85 0 85 -330 0 -330 0 0 165
0 165 165 0 165 0 0 -80z m0 -665 l0 -85 -85 0 -85 0 0 85 0 85 85 0 85 0 0
-85z m2840 0 l0 -85 -85 0 -85 0 0 85 0 85 85 0 85 0 0 -85z m-170 -835 l0
-250 -250 0 -250 0 0 250 0 250 250 0 250 0 0 -250z m340 -5 l0 -85 80 0 80 0
0 -80 0 -80 85 0 85 0 0 -85 0 -85 -85 0 -85 0 0 -85 0 -85 -165 0 -165 0 0
335 0 335 85 0 85 0 0 -85z"/>
<path d="M1050 2110 l0 -80 85 0 85 0 0 80 0 80 -85 0 -85 0 0 -80z"/>
<path d="M2060 1945 l0 -85 -170 0 -170 0 0 -85 0 -85 -165 0 -165 0 0 -80 0
-80 165 0 165 0 0 80 0 80 85 0 85 0 0 -165 0 -165 85 0 85 0 0 250 0 250 80
0 80 0 0 85 0 85 -80 0 -80 0 0 -85z"/>
<path d="M1050 1775 l0 -85 85 0 85 0 0 85 0 85 -85 0 -85 0 0 -85z"/>
<path d="M3060 1105 l0 -85 85 0 85 0 0 85 0 85 -85 0 -85 0 0 -85z"/>
<path d="M3730 775 l0 -85 80 0 80 0 0 85 0 85 -80 0 -80 0 0 -85z"/>
<path d="M3060 3615 l0 -585 585 0 585 0 -2 583 -3 582 -582 3 -583 2 0 -585z
m1000 -5 l0 -420 -415 0 -415 0 0 420 0 420 415 0 415 0 0 -420z"/>
<path d="M3390 3610 l0 -250 250 0 250 0 0 250 0 250 -250 0 -250 0 0 -250z"/>
<path d="M1390 3115 l0 -85 85 0 85 0 0 85 0 85 -85 0 -85 0 0 -85z"/>
<path d="M1390 2775 l0 -85 85 0 85 0 0 85 0 85 -85 0 -85 0 0 -85z"/>
<path d="M52 608 l3 -583 583 -3 582 -2 0 585 0 585 -585 0 -585 0 2 -582z
m1006 -1 l2 -417 -420 0 -420 0 0 420 0 420 418 -2 417 -3 3 -418z"/>
<path d="M390 610 l0 -250 250 0 250 0 0 250 0 250 -250 0 -250 0 0 -250z"/>
<path d="M1890 275 l0 -85 85 0 85 0 0 -85 0 -85 80 0 80 0 0 85 0 85 -80 0
-80 0 0 85 0 85 -85 0 -85 0 0 -85z"/>
</g>
</svg>
